<svg width="17" height="18" viewBox="0 0 17 18" fill="none" xmlns="http://www.w3.org/2000/svg">
<g clip-path="url(#clip0_195_4622)">
<path d="M8.5 15.706C12.0204 15.706 14.875 12.817 14.875 9.25403C14.875 5.69109 12.0204 2.80203 8.5 2.80203C4.97958 2.80203 2.125 5.69109 2.125 9.25403C2.125 12.817 4.97958 15.706 8.5 15.706Z" fill="black" stroke="white" stroke-width="1.5" stroke-miterlimit="10"/>
<path d="M2.13867 8.8454C3.50576 9.34722 4.92242 9.68416 6.36742 9.83471H6.41701C7.10409 9.9064 7.79827 9.94941 8.48535 9.94941C9.19369 9.94941 9.89493 9.91356 10.6033 9.83471H10.6458C12.0341 9.69133 13.3941 9.37589 14.7045 8.90992" stroke="white" stroke-width="1.5" stroke-miterlimit="10" stroke-linecap="round"/>
<path d="M4.08691 4.60144C4.88733 5.14628 5.51066 5.90617 5.90025 6.79512C6.27566 7.6984 6.45276 8.66619 6.42443 9.64116V9.83471C6.38901 10.5803 6.21192 11.3115 5.90734 11.9926C5.54609 12.8241 4.9865 13.5482 4.264 14.0859" stroke="white" stroke-width="1.5" stroke-miterlimit="10" stroke-linecap="round"/>
<path d="M12.7286 14.0715C12.0203 13.5267 11.4536 12.8098 11.0924 11.9782C10.809 11.29 10.639 10.5588 10.5824 9.81319V9.62679C10.5328 8.64465 10.7099 7.66252 11.1065 6.76641C11.489 5.90615 12.0769 5.16776 12.8349 4.62292" stroke="white" stroke-width="1.5" stroke-miterlimit="10" stroke-linecap="round"/>
</g>
<defs>
<clipPath id="clip0_195_4622">
<rect width="17" height="17.2053" fill="white" transform="translate(0 0.651367)"/>
</clipPath>
</defs>
</svg>
