<svg width="111" height="17" viewBox="0 0 111 17" fill="none" xmlns="http://www.w3.org/2000/svg">
<path d="M72.3071 7.8147L69.3045 7.99947C69.2532 7.74284 69.1428 7.51188 68.9734 7.30657C68.8041 7.09614 68.5808 6.92933 68.3036 6.80614C68.0316 6.67783 67.7057 6.61367 67.3259 6.61367C66.8177 6.61367 66.3892 6.72146 66.0402 6.93702C65.6911 7.14746 65.5166 7.42975 65.5166 7.7839C65.5166 8.0662 65.6295 8.30486 65.8554 8.4999C66.0812 8.69494 66.4687 8.85149 67.0179 8.96954L69.1582 9.40067C70.3079 9.63677 71.1651 10.0166 71.7296 10.5401C72.2942 11.0636 72.5765 11.7514 72.5765 12.6034C72.5765 13.3784 72.3481 14.0585 71.8913 14.6436C71.4397 15.2287 70.8186 15.6855 70.0282 16.014C69.2429 16.3374 68.337 16.4991 67.3105 16.4991C65.745 16.4991 64.4978 16.1731 63.5688 15.5213C62.6449 14.8643 62.1034 13.9713 61.9443 12.8421L65.1702 12.6727C65.2677 13.15 65.5038 13.5145 65.8785 13.766C66.2532 14.0123 66.7331 14.1355 67.3182 14.1355C67.893 14.1355 68.355 14.0252 68.704 13.8044C69.0581 13.5786 69.2378 13.2886 69.2429 12.9345C69.2378 12.6368 69.112 12.393 68.8657 12.2031C68.6193 12.008 68.2395 11.8592 67.7262 11.7565L65.6783 11.3485C64.5235 11.1175 63.6638 10.7172 63.0992 10.1475C62.5397 9.57775 62.26 8.85149 62.26 7.96868C62.26 7.20905 62.4653 6.55465 62.8759 6.00546C63.2916 5.45627 63.8742 5.03283 64.6236 4.73514C65.378 4.43745 66.2609 4.2886 67.272 4.2886C68.7656 4.2886 69.9409 4.60426 70.7981 5.23557C71.6604 5.86688 72.1633 6.72659 72.3071 7.8147Z" fill="black"/>
<path d="M60.4907 0.500835V16.2682H57.2109V0.500835L60.4907 0.500835Z" fill="black"/>
<path d="M50.2933 16.4991C49.0769 16.4991 48.0298 16.2527 47.1522 15.76C46.2796 15.2621 45.6073 14.5589 45.1351 13.6505C44.6629 12.7369 44.4268 11.6565 44.4268 10.4092C44.4268 9.1928 44.6629 8.12522 45.1351 7.20649C45.6073 6.28775 46.2719 5.57175 47.1291 5.05849C47.9914 4.54523 49.0025 4.2886 50.1624 4.2886C50.9426 4.2886 51.6689 4.41435 52.3412 4.66585C53.0187 4.91221 53.609 5.28433 54.112 5.78219C54.6201 6.28005 55.0153 6.90623 55.2976 7.66072C55.5799 8.41008 55.7211 9.28776 55.7211 10.2937V11.1945L45.7356 11.1945V9.16201H52.6338C52.6338 8.68981 52.5311 8.2715 52.3258 7.90709C52.1205 7.54267 51.8357 7.25781 51.4713 7.05251C51.112 6.84207 50.6937 6.73685 50.2163 6.73685C49.7185 6.73685 49.2771 6.85234 48.8921 7.0833C48.5123 7.30914 48.2146 7.61453 47.9991 7.99947C47.7835 8.37929 47.6731 8.80273 47.668 9.26979V11.2022C47.668 11.7873 47.7758 12.2929 47.9914 12.7189C48.2121 13.1449 48.5226 13.4734 48.9229 13.7044C49.3233 13.9353 49.798 14.0508 50.3472 14.0508C50.7116 14.0508 51.0453 13.9995 51.3481 13.8968C51.6509 13.7942 51.9101 13.6402 52.1257 13.4349C52.3412 13.2296 52.5055 12.9781 52.6184 12.6804L55.6518 12.8806C55.4978 13.6094 55.1821 14.2459 54.7048 14.7899C54.2326 15.3288 53.6218 15.7497 52.8725 16.0525C52.1282 16.3502 51.2685 16.4991 50.2933 16.4991Z" fill="black"/>
<path d="M36.1294 16.4607C35.2312 16.4607 34.4177 16.2297 33.6889 15.7678C32.9652 15.3007 32.3903 14.6155 31.9643 13.7122C31.5434 12.8037 31.333 11.6899 31.333 10.3708C31.333 9.01583 31.5511 7.88922 31.9874 6.99101C32.4237 6.08768 33.0037 5.41274 33.7274 4.9662C34.4562 4.51453 35.2543 4.2887 36.1217 4.2887C36.7838 4.2887 37.3356 4.40162 37.777 4.62745C38.2235 4.84815 38.5828 5.12531 38.8548 5.45893C39.132 5.78742 39.3424 6.11077 39.4862 6.42899H39.5862V0.500835L42.8583 0.500835V16.2682H39.6247V14.3743H39.4862C39.3322 14.7028 39.114 15.0287 38.8317 15.352C38.5546 15.6702 38.1927 15.9346 37.7462 16.145C37.3048 16.3555 36.7659 16.4607 36.1294 16.4607ZM37.1688 13.8507C37.6974 13.8507 38.144 13.707 38.5084 13.4196C38.8779 13.127 39.1602 12.719 39.3553 12.1955C39.5554 11.672 39.6555 11.0586 39.6555 10.3554C39.6555 9.65227 39.558 9.04149 39.363 8.5231C39.1679 8.0047 38.8856 7.60436 38.5161 7.32207C38.1465 7.03977 37.6974 6.89863 37.1688 6.89863C36.6299 6.89863 36.1756 7.04491 35.8061 7.33746C35.4365 7.63002 35.1568 8.0355 34.9669 8.55389C34.777 9.07229 34.682 9.6728 34.682 10.3554C34.682 11.0432 34.777 11.6514 34.9669 12.1801C35.1619 12.7036 35.4417 13.1142 35.8061 13.4119C36.1756 13.7045 36.6299 13.8507 37.1688 13.8507Z" fill="black"/>
<path d="M24.4688 16.4991C23.2729 16.4991 22.2387 16.245 21.3662 15.7369C20.4987 15.2236 19.8289 14.5102 19.3567 13.5966C18.8845 12.6778 18.6484 11.6128 18.6484 10.4015C18.6484 9.17997 18.8845 8.11239 19.3567 7.19879C19.8289 6.28005 20.4987 5.56662 21.3662 5.05849C22.2387 4.54523 23.2729 4.2886 24.4688 4.2886C25.6647 4.2886 26.6964 4.54523 27.5638 5.05849C28.4363 5.56662 29.1087 6.28005 29.5809 7.19879C30.0531 8.11239 30.2892 9.17997 30.2892 10.4015C30.2892 11.6128 30.0531 12.6778 29.5809 13.5966C29.1087 14.5102 28.4363 15.2236 27.5638 15.7369C26.6964 16.245 25.6647 16.4991 24.4688 16.4991ZM24.4842 13.9584C25.0283 13.9584 25.4825 13.8044 25.8469 13.4965C26.2113 13.1834 26.4859 12.7574 26.6707 12.2185C26.8606 11.6796 26.9556 11.0662 26.9556 10.3784C26.9556 9.69067 26.8606 9.07732 26.6707 8.5384C26.4859 7.99947 26.2113 7.57347 25.8469 7.26038C25.4825 6.94729 25.0283 6.79075 24.4842 6.79075C23.935 6.79075 23.4731 6.94729 23.0984 7.26038C22.7289 7.57347 22.4491 7.99947 22.2592 8.5384C22.0745 9.07732 21.9821 9.69067 21.9821 10.3784C21.9821 11.0662 22.0745 11.6796 22.2592 12.2185C22.4491 12.7574 22.7289 13.1834 23.0984 13.4965C23.4731 13.8044 23.935 13.9584 24.4842 13.9584Z" fill="black"/>
<path d="M0 0.500835L4.11122 0.500835L8.4534 11.0945H8.63818L12.9804 0.500835L17.0916 0.500835L17.0916 16.2682L13.858 16.2682L13.858 6.00555L13.7272 6.00555L9.64673 16.1912H7.44484L3.36442 5.96706H3.23354L3.23354 16.2682H0L0 0.500835Z" fill="black"/>
<path d="M99.4668 16.2682V0.500835H102.747V6.42899H102.847C102.99 6.11077 103.198 5.78742 103.47 5.45893C103.747 5.12531 104.107 4.84815 104.548 4.62745C104.995 4.40162 105.549 4.2887 106.211 4.2887C107.073 4.2887 107.869 4.51453 108.598 4.9662C109.327 5.41274 109.909 6.08768 110.345 6.99101C110.782 7.88922 111 9.01583 111 10.3708C111 11.6899 110.787 12.8037 110.361 13.7122C109.94 14.6155 109.365 15.3007 108.636 15.7678C107.912 16.2297 107.102 16.4607 106.203 16.4607C105.567 16.4607 105.025 16.3555 104.579 16.145C104.137 15.9346 103.776 15.6702 103.493 15.352C103.211 15.0287 102.995 14.7028 102.847 14.3743H102.7V16.2682H99.4668ZM102.677 10.3554C102.677 11.0586 102.775 11.672 102.97 12.1955C103.165 12.719 103.447 13.127 103.817 13.4196C104.186 13.707 104.635 13.8507 105.164 13.8507C105.698 13.8507 106.149 13.7045 106.519 13.4119C106.889 13.1142 107.168 12.7036 107.358 12.1801C107.553 11.6514 107.651 11.0432 107.651 10.3554C107.651 9.6728 107.556 9.07229 107.366 8.55389C107.176 8.0355 106.896 7.63002 106.527 7.33746C106.157 7.04491 105.703 6.89863 105.164 6.89863C104.63 6.89863 104.179 7.03977 103.809 7.32207C103.445 7.60436 103.165 8.0047 102.97 8.5231C102.775 9.04149 102.677 9.65227 102.677 10.3554Z" fill="#005CF0"/>
<path d="M90.2009 16.4914C89.4464 16.4914 88.774 16.3605 88.1837 16.0987C87.5935 15.8318 87.1264 15.4392 86.7825 14.9208C86.4438 14.3973 86.2744 13.7454 86.2744 12.9653C86.2744 12.3083 86.395 11.7565 86.6363 11.31C86.8775 10.8635 87.206 10.5042 87.6217 10.2322C88.0375 9.96013 88.5097 9.75482 89.0383 9.61624C89.5721 9.47766 90.1316 9.38014 90.7167 9.32369C91.4045 9.25183 91.9588 9.1851 92.3796 9.12351C92.8005 9.05679 93.1059 8.95927 93.2958 8.83096C93.4857 8.70264 93.5807 8.51273 93.5807 8.26124V8.21504C93.5807 7.72745 93.4267 7.3502 93.1187 7.0833C92.8159 6.81641 92.3848 6.68296 91.8253 6.68296C91.2351 6.68296 90.7654 6.81384 90.4164 7.0756C90.0674 7.33223 89.8364 7.65559 89.7235 8.04567L86.6902 7.7993C86.8441 7.08074 87.147 6.45969 87.5986 5.93617C88.0503 5.40751 88.6328 5.00203 89.3463 4.71974C90.0648 4.43231 90.8963 4.2886 91.8407 4.2886C92.4977 4.2886 93.1264 4.36559 93.727 4.51957C94.3326 4.67355 94.869 4.91221 95.336 5.23557C95.8082 5.55892 96.1803 5.97466 96.4524 6.48279C96.7244 6.98578 96.8604 7.58886 96.8604 8.29203V16.2681H93.7501V14.6282H93.6577C93.4678 14.9978 93.2137 15.3237 92.8955 15.606C92.5773 15.8832 92.1949 16.1013 91.7483 16.2604C91.3018 16.4144 90.786 16.4914 90.2009 16.4914ZM91.1401 14.2279C91.6226 14.2279 92.0486 14.1329 92.4181 13.943C92.7877 13.748 93.0777 13.4862 93.2881 13.1577C93.4986 12.8293 93.6038 12.4571 93.6038 12.0414V10.7865C93.5011 10.8532 93.36 10.9148 93.1803 10.9713C93.0058 11.0226 92.8082 11.0713 92.5875 11.1175C92.3668 11.1586 92.1461 11.1971 91.9254 11.233C91.7047 11.2638 91.5045 11.292 91.3249 11.3177C90.94 11.3742 90.6038 11.464 90.3163 11.5872C90.0289 11.7103 89.8056 11.8772 89.6465 12.0876C89.4874 12.2929 89.4079 12.5495 89.4079 12.8575C89.4079 13.304 89.5695 13.6453 89.8929 13.8814C90.2214 14.1124 90.6371 14.2279 91.1401 14.2279Z" fill="#005CF0"/>
<path d="M74.5898 16.2682V0.500835H77.9235V13.5197H84.6831V16.2682H74.5898Z" fill="#005CF0"/>
</svg>
