<svg width="17" height="18" viewBox="0 0 17 18" fill="none" xmlns="http://www.w3.org/2000/svg">
<path d="M8.47884 2.08408C4.56884 2.08408 1.39551 5.29573 1.39551 9.25296C1.39551 13.2102 4.56884 16.4218 8.47884 16.4218C12.3888 16.4218 15.5622 13.2102 15.5622 9.25296C15.5622 5.29573 12.3959 2.08408 8.47884 2.08408ZM10.6038 10.8516L8.54967 12.0488C8.29467 12.1994 8.01134 12.2711 7.73509 12.2711C7.45176 12.2711 7.17551 12.1994 6.92051 12.0488C6.41051 11.7477 6.10592 11.2172 6.10592 10.615V8.21347C6.10592 7.61845 6.41051 7.08079 6.92051 6.77969C7.43051 6.4786 8.03967 6.4786 8.55676 6.77969L10.6109 7.9769C11.1209 8.27799 11.4255 8.80849 11.4255 9.41067C11.4255 10.0129 11.1209 10.5505 10.6038 10.8516Z" fill="black"/>
</svg>
