<svg width="17" height="17" viewBox="0 0 17 17" fill="none" xmlns="http://www.w3.org/2000/svg">
<path d="M2.88578 11.881L3.29559 12.2908C2.63989 12.7006 2.74917 13.4178 2.88578 13.7251C3.45952 14.053 4.08107 13.6568 4.32013 13.4178L4.72994 13.8276C4.56601 14.6472 2.68087 14.8521 1.75879 14.8521C1.75879 12.4752 2.51011 11.881 2.88578 11.881Z" fill="white" stroke="white"/>
<path fill-rule="evenodd" clip-rule="evenodd" d="M4.42304 9.93435V10.8564L6.16475 12.5981H7.18928L6.77947 15.9791C8.48703 15.5693 11.7177 14.1144 10.9801 11.5736C12.551 10.3442 15.7544 6.5124 16.0003 1.0209C13.9854 1.0892 8.97197 2.27083 5.44758 6.04112C4.28644 5.76791 1.8822 6.16406 1.14453 10.3442L4.42304 9.93435ZM11.1169 7.43146C11.9037 7.43146 12.5415 6.79365 12.5415 6.00687C12.5415 5.22009 11.9037 4.58228 11.1169 4.58228C10.3301 4.58228 9.69228 5.22009 9.69228 6.00687C9.69228 6.79365 10.3301 7.43146 11.1169 7.43146Z" fill="white"/>
<path d="M4.42304 10.8564H3.92304V11.0635L4.06949 11.21L4.42304 10.8564ZM4.42304 9.93435H4.92304V9.36796L4.36102 9.43821L4.42304 9.93435ZM6.16475 12.5981L5.8112 12.9517L5.95764 13.0981H6.16475V12.5981ZM7.18928 12.5981L7.68565 12.6583L7.75355 12.0981H7.18928V12.5981ZM6.77947 15.9791L6.2831 15.9189L6.19653 16.6332L6.89616 16.4653L6.77947 15.9791ZM10.9801 11.5736L10.6719 11.1799L10.4056 11.3883L10.4999 11.713L10.9801 11.5736ZM16.0003 1.0209L16.4998 1.04326L16.524 0.502859L15.9833 0.521186L16.0003 1.0209ZM5.44758 6.04112L5.33306 6.52783L5.61503 6.59417L5.81284 6.38256L5.44758 6.04112ZM1.14453 10.3442L0.652139 10.2573L0.534425 10.9243L1.20655 10.8403L1.14453 10.3442ZM4.92304 10.8564V9.93435H3.92304V10.8564H4.92304ZM6.5183 12.2446L4.77659 10.5029L4.06949 11.21L5.8112 12.9517L6.5183 12.2446ZM7.18928 12.0981H6.16475V13.0981H7.18928V12.0981ZM7.27584 16.0393L7.68565 12.6583L6.69292 12.538L6.2831 15.9189L7.27584 16.0393ZM10.4999 11.713C10.7886 12.7076 10.334 13.5151 9.48711 14.1829C8.63329 14.8562 7.47313 15.2984 6.66278 15.4929L6.89616 16.4653C7.79337 16.25 9.10233 15.7599 10.1063 14.9681C11.1173 14.1708 11.9091 12.9805 11.4602 11.4342L10.4999 11.713ZM15.5008 0.998533C15.2628 6.31381 12.1543 10.0197 10.6719 11.1799L11.2882 11.9674C12.9477 10.6686 16.246 6.71099 16.4998 1.04326L15.5008 0.998533ZM5.81284 6.38256C9.22472 2.73264 14.0987 1.58565 16.0172 1.52061L15.9833 0.521186C13.872 0.592757 8.71923 1.80902 5.08231 5.69968L5.81284 6.38256ZM1.63692 10.4311C1.99037 8.4282 2.72567 7.42151 3.42415 6.93215C4.12776 6.43919 4.8681 6.41842 5.33306 6.52783L5.5621 5.55441C4.86591 5.3906 3.82356 5.43131 2.85035 6.11315C1.87201 6.79858 1.03636 8.08002 0.652139 10.2573L1.63692 10.4311ZM4.36102 9.43821L1.08251 9.84802L1.20655 10.8403L4.48506 10.4305L4.36102 9.43821ZM12.0415 6.00687C12.0415 6.51751 11.6275 6.93146 11.1169 6.93146V7.93146C12.1798 7.93146 13.0415 7.06979 13.0415 6.00687H12.0415ZM11.1169 5.08228C11.6275 5.08228 12.0415 5.49623 12.0415 6.00687H13.0415C13.0415 4.94395 12.1798 4.08228 11.1169 4.08228V5.08228ZM10.1923 6.00687C10.1923 5.49623 10.6062 5.08228 11.1169 5.08228V4.08228C10.054 4.08228 9.19228 4.94395 9.19228 6.00687H10.1923ZM11.1169 6.93146C10.6062 6.93146 10.1923 6.51751 10.1923 6.00687H9.19228C9.19228 7.06979 10.054 7.93146 11.1169 7.93146V6.93146Z" fill="white"/>
</svg>
