<svg width="20" height="20" viewBox="0 0 20 20" fill="none" xmlns="http://www.w3.org/2000/svg">
<path d="M14.8004 13.8002C14.6724 13.8002 14.5524 13.7602 14.4404 13.6802C14.1764 13.4802 14.1204 13.1042 14.3204 12.8402C15.5764 11.1682 15.5764 8.83217 14.3204 7.16017C14.1204 6.89617 14.1764 6.52017 14.4404 6.32017C14.7044 6.12017 15.0804 6.17617 15.2804 6.44017C16.8484 8.53617 16.8484 11.4642 15.2804 13.5602C15.1604 13.7202 14.9844 13.8002 14.8004 13.8002Z" fill="black"/>
<path d="M16.2643 15.8002C16.1363 15.8002 16.0163 15.7602 15.9043 15.6802C15.6403 15.4802 15.5843 15.1042 15.7843 14.8402C17.9203 11.9922 17.9203 8.00818 15.7843 5.16018C15.5843 4.89618 15.6403 4.52018 15.9043 4.32018C16.1683 4.12018 16.5443 4.17618 16.7443 4.44018C19.2003 7.71218 19.2003 12.2882 16.7443 15.5602C16.6323 15.7202 16.4483 15.8002 16.2643 15.8002Z" fill="black"/>
<path d="M11.6164 3.42417C10.7204 2.92817 9.57639 3.05617 8.40839 3.78417L6.07239 5.24817C5.91239 5.34417 5.72839 5.40017 5.54439 5.40017H4.80039H4.40039C2.46439 5.40017 1.40039 6.46417 1.40039 8.40017V11.6002C1.40039 13.5362 2.46439 14.6002 4.40039 14.6002H4.80039H5.54439C5.72839 14.6002 5.91239 14.6562 6.07239 14.7522L8.40839 16.2162C9.11239 16.6562 9.80039 16.8722 10.4404 16.8722C10.8564 16.8722 11.2564 16.7762 11.6164 16.5762C12.5044 16.0802 13.0004 15.0482 13.0004 13.6722V6.32817C13.0004 4.95217 12.5044 3.92017 11.6164 3.42417Z" fill="black"/>
</svg>
