<svg width="147" height="35" viewBox="0 0 147 35" fill="none" xmlns="http://www.w3.org/2000/svg">
<path fill-rule="evenodd" clip-rule="evenodd" d="M57.3873 25.2998L55.3872 34.5983H50.7871L58.3873 0.89919H63.8366L70.9868 34.5983H66.3366L64.3866 25.2998H57.3873ZM63.8366 21.5497L62.2865 13.4987C61.8365 11.1986 61.3865 8.2002 61.0373 5.7993H60.8365C60.4873 8.24936 59.9857 11.3486 59.5373 13.4987L57.9373 21.5497H63.8366ZM88.5455 0V28.349C88.5455 30.1999 88.6455 32.9 88.7447 34.5992H84.6954L84.3954 31.6499H84.2454C83.4454 33.3491 81.5953 35 79.1461 35C74.646 35 71.8959 30.0991 71.8959 22.5505C71.8959 13.9503 75.5452 9.90024 79.3961 9.90024C81.3453 9.90024 82.8954 10.8011 83.7454 12.6503H83.8454V0H88.5455ZM83.8446 19.5496C83.8446 19.1005 83.8446 18.5504 83.7946 18.0488C83.5446 15.8495 82.2945 13.9495 80.5953 13.9495C77.6444 13.9495 76.6452 18.0488 76.6452 22.5497C76.6452 27.5498 77.9453 31.0491 80.4453 31.0491C81.4953 31.0491 82.8945 30.4991 83.6946 27.5998C83.7946 27.1998 83.8446 26.599 83.8446 26.0506V19.5496ZM99.7408 34.9992C94.8915 34.9992 91.3906 30.8491 91.3906 22.5005C91.3906 13.6495 95.5398 9.89941 99.9899 9.89941C104.79 9.89941 108.239 14.1995 108.239 22.3997C108.239 32.0499 103.489 34.9992 99.7899 34.9992H99.7408ZM99.8899 31.2999C102.789 31.2999 103.44 26.1498 103.44 22.4505C103.44 18.7996 102.79 13.6003 99.7908 13.6003C96.6899 13.6003 96.0907 18.7996 96.0907 22.4505C96.0907 26.4998 96.7907 31.2999 99.8408 31.2999H99.8899ZM111.073 0H115.772V13.0495H115.872C117.122 10.8503 118.822 9.89941 120.972 9.89941C125.121 9.89941 127.722 14.5995 127.722 22.0497C127.722 30.7491 124.172 34.9992 120.172 34.9992C117.772 34.9992 116.422 33.6983 115.371 31.5483H115.173L114.922 34.5983H110.873C110.973 32.9491 111.073 30.1991 111.073 28.3482V0ZM115.772 25.9981C115.772 26.5498 115.822 27.0998 115.972 27.499C116.721 30.4499 118.172 31.0491 119.121 31.0491C121.921 31.0491 122.971 27.3498 122.971 22.3497C122.971 17.6996 121.872 13.9495 119.071 13.9495C117.521 13.9495 116.271 15.7995 115.921 17.5496C115.821 18.0496 115.771 18.7004 115.771 19.1996V25.9981H115.772ZM134.657 23.3989C134.707 29.649 137.407 31.1982 140.257 31.1982C141.957 31.1982 143.407 30.7991 144.457 30.2982L145.157 33.6983C143.707 34.4483 141.507 34.8492 139.357 34.8492C133.257 34.8492 130.057 30.2491 130.057 22.7489C130.057 14.7987 133.707 9.89857 138.757 9.89857C143.807 9.89857 146.157 14.7487 146.157 20.8497C146.157 22.0489 146.106 22.7997 146.057 23.4489L134.657 23.3989ZM141.707 20.0496C141.757 15.7495 140.257 13.4503 138.408 13.4503C135.957 13.4503 134.857 17.0004 134.707 20.0496H141.707Z" fill="black"/>
<path fill-rule="evenodd" clip-rule="evenodd" d="M24.3001 0.988281H38.3396V34.5974L24.3001 0.988281ZM14.4099 0.988281H0.360352V34.5974L14.4099 0.988281ZM19.3558 13.3744L28.301 34.5974H22.4392L19.7641 27.8381H13.2165L19.3558 13.3744Z" fill="#838383"/>
<path fill-rule="evenodd" clip-rule="evenodd" d="M145.757 9.83599C145.898 9.83664 146.038 9.86518 146.167 9.91996C146.297 9.97475 146.415 10.0547 146.514 10.1552C146.612 10.2557 146.69 10.3747 146.743 10.5054C146.795 10.6362 146.821 10.776 146.819 10.9169C146.819 11.5269 146.348 12.0027 145.752 12.0027C145.162 12.0027 144.681 11.5277 144.681 10.9169C144.68 10.7755 144.707 10.6353 144.761 10.5044C144.814 10.3736 144.893 10.2545 144.992 10.1541C145.092 10.0537 145.21 9.97392 145.341 9.91934C145.471 9.86475 145.611 9.83642 145.752 9.83599H145.757ZM145.752 10.0035C145.277 10.0035 144.887 10.4127 144.887 10.9169C144.887 11.431 145.277 11.8344 145.757 11.8344C146.238 11.8394 146.622 11.431 146.622 10.9218C146.622 10.4127 146.238 10.0035 145.757 10.0035H145.752ZM145.551 11.5469H145.359V10.3402C145.46 10.326 145.557 10.311 145.701 10.311C145.883 10.311 146.002 10.3502 146.075 10.4027C146.147 10.4552 146.186 10.5368 146.186 10.6527C146.186 10.811 146.08 10.9077 145.95 10.946V10.9552C146.056 10.9744 146.128 11.071 146.152 11.2485C146.181 11.436 146.209 11.5077 146.229 11.5469H146.028C145.998 11.5077 145.97 11.3977 145.946 11.2394C145.917 11.0852 145.84 11.0277 145.686 11.0277H145.552V11.5469H145.551ZM145.551 10.8785H145.69C145.848 10.8785 145.984 10.821 145.984 10.6718C145.984 10.566 145.907 10.4602 145.69 10.4602C145.628 10.4602 145.584 10.4652 145.551 10.4702V10.8785ZM40.19 0.988281C40.3308 0.988929 40.4702 1.01747 40.6 1.07225C40.7297 1.12704 40.8474 1.20698 40.9461 1.30747C41.0448 1.40796 41.1226 1.52701 41.1751 1.65774C41.2275 1.78847 41.2536 1.92829 41.2517 2.06914C41.2517 2.67915 40.7808 3.155 40.185 3.155C39.5941 3.155 39.1133 2.67999 39.1133 2.06914C39.1125 1.92775 39.1397 1.78761 39.1931 1.65672C39.2466 1.52584 39.3254 1.40678 39.4249 1.30638C39.5245 1.20598 39.6428 1.12621 39.7733 1.07162C39.9037 1.01704 40.0436 0.988718 40.185 0.988281H40.19ZM40.185 1.15578C39.7091 1.15578 39.32 1.56496 39.32 2.06914C39.32 2.58332 39.7091 2.98666 40.19 2.98666C40.67 2.99166 41.055 2.58332 41.055 2.07414C41.055 1.56496 40.67 1.15578 40.19 1.15578H40.185ZM39.9833 2.69916H39.7908V1.49246C39.9037 1.47372 40.018 1.46424 40.1325 1.46413C40.315 1.46413 40.435 1.50163 40.5067 1.55496C40.5792 1.60746 40.6175 1.68996 40.6175 1.80496C40.6175 1.9633 40.5117 2.05997 40.3817 2.09831V2.10747C40.4875 2.12664 40.56 2.22331 40.5842 2.40165C40.6125 2.58915 40.6417 2.66082 40.6608 2.69999H40.4592C40.43 2.66082 40.4008 2.55082 40.3775 2.39248C40.3483 2.23831 40.2717 2.18081 40.1175 2.18081H39.9833V2.69916ZM39.9833 2.03081H40.1225C40.2808 2.03081 40.4158 1.9733 40.4158 1.82413C40.4158 1.7183 40.3392 1.61246 40.1225 1.61246C40.06 1.61246 40.0167 1.61746 39.9833 1.62246V2.03081Z" fill="black"/>
</svg>
