<svg width="117" height="35" viewBox="0 0 117 35" fill="none" xmlns="http://www.w3.org/2000/svg">
<g clip-path="url(#clip0_195_4833)">
<path d="M72.3088 27.3432C65.5759 32.3043 55.817 34.9512 47.4148 34.9512C35.6334 34.9512 25.0272 30.5951 17.0032 23.3502C16.3728 22.7805 16.9376 22.0041 17.6941 22.4477C26.3536 27.4844 37.0607 30.5145 48.1208 30.5145C55.58 30.5145 63.7855 28.9717 71.3304 25.7702C72.4702 25.2862 73.4234 26.5164 72.3088 27.3432Z" fill="#757575"/>
<path d="M75.1075 24.1417C74.2501 23.0426 69.4185 23.6224 67.2499 23.8795C66.5892 23.9602 66.4883 23.3854 67.0835 22.972C70.9315 20.2646 77.2458 21.0461 77.9822 21.9536C78.7185 22.8661 77.7905 29.1934 74.1744 32.2134C73.6197 32.6773 73.0901 32.4302 73.3372 31.8151C74.1492 29.7884 75.9699 25.2458 75.1075 24.1417Z" fill="#757575"/>
<path d="M67.4012 3.85977V1.228C67.4012 0.82971 67.7038 0.5625 68.067 0.5625H79.8533C80.2316 0.5625 80.5342 0.834752 80.5342 1.228V3.48164C80.5291 3.85977 80.2114 4.35386 79.6465 5.13532L73.539 13.8524C75.8085 13.797 78.2041 14.1348 80.2618 15.2943C80.7258 15.5565 80.8519 15.9397 80.8872 16.3178V19.126C80.8872 19.5092 80.4636 19.9579 80.0198 19.726C76.3936 17.8253 71.5771 17.6186 67.5677 19.7462C67.1592 19.968 66.7305 19.5243 66.7305 19.1412V16.4741C66.7305 16.0456 66.7355 15.3145 67.1642 14.6641L74.24 4.52023H68.0821C67.7038 4.52023 67.4012 4.25303 67.4012 3.85977Z" fill="#221F1F"/>
<path d="M24.407 20.2805H20.8212C20.4782 20.2553 20.2059 19.9982 20.1807 19.6704V1.27329C20.1807 0.905242 20.4883 0.612821 20.8716 0.612821H24.2154C24.5634 0.627936 24.8407 0.895156 24.866 1.22791V3.6328H24.9315C25.804 1.30857 27.4431 0.224609 29.6521 0.224609C31.8964 0.224609 33.2985 1.30857 34.3071 3.6328C35.1746 1.30857 37.1466 0.224609 39.2597 0.224609C40.7627 0.224609 42.4068 0.844738 43.4104 2.23625C44.5452 3.78405 44.3132 6.03265 44.3132 8.00396L44.3082 19.615C44.3082 19.983 44.0005 20.2805 43.6172 20.2805H40.0364C39.6783 20.2553 39.3909 19.9679 39.3909 19.615V9.86434C39.3909 9.08792 39.4615 7.15191 39.29 6.41582C39.0227 5.1806 38.2208 4.83272 37.1819 4.83272C36.3144 4.83272 35.4066 5.41252 35.0384 6.34019C34.6703 7.26787 34.7056 8.82071 34.7056 9.86434V19.615C34.7056 19.983 34.3979 20.2805 34.0146 20.2805H30.4338C30.0707 20.2553 29.7883 19.9679 29.7883 19.615L29.7832 9.86434C29.7832 7.81237 30.1211 4.79239 27.5742 4.79239C24.9971 4.79239 25.098 7.73674 25.098 9.86434V19.615C25.098 19.983 24.7903 20.2805 24.407 20.2805Z" fill="#221F1F"/>
<path d="M90.6817 0.224609C96.0025 0.224609 98.8822 4.79239 98.8822 10.6004C98.8822 16.2118 95.6999 20.6637 90.6817 20.6637C85.4568 20.6637 82.6123 16.0959 82.6123 10.4038C82.6123 4.67643 85.4921 0.224609 90.6817 0.224609ZM90.712 3.98068C88.0692 3.98068 87.9028 7.58045 87.9028 9.82401C87.9028 12.0726 87.8675 16.8723 90.6817 16.8723C93.4606 16.8723 93.5917 13.0003 93.5917 10.6408C93.5917 9.08792 93.5262 7.23257 93.0571 5.7604C92.6537 4.47981 91.8518 3.98068 90.712 3.98068Z" fill="#221F1F"/>
<path d="M105.782 20.2805H102.211C101.853 20.2553 101.566 19.9679 101.566 19.615L101.561 1.21278C101.591 0.874988 101.888 0.612821 102.251 0.612821H105.575C105.888 0.627936 106.145 0.839698 106.216 1.12707V3.94034H106.281C107.285 1.42453 108.692 0.224609 111.168 0.224609C112.777 0.224609 114.345 0.804406 115.354 2.39254C116.292 3.86472 116.292 6.34019 116.292 8.11991V19.7007C116.252 20.0234 115.954 20.2805 115.601 20.2805H112.005C111.678 20.2553 111.405 20.0133 111.37 19.7007V9.70805C111.37 7.69641 111.602 4.75206 109.126 4.75206C108.253 4.75206 107.451 5.3369 107.053 6.22423C106.548 7.34853 106.483 8.46779 106.483 9.70805V19.615C106.478 19.983 106.165 20.2805 105.782 20.2805Z" fill="#221F1F"/>
<path d="M58.0053 11.4915V10.7151C55.413 10.7151 52.6745 11.2697 52.6745 14.325C52.6745 15.8728 53.4764 16.9215 54.8532 16.9215C55.8619 16.9215 56.7646 16.3013 57.3346 15.293C58.0406 14.0527 58.0053 12.8881 58.0053 11.4915ZM61.6214 20.2288C61.3844 20.4406 61.0414 20.4557 60.7741 20.3145C59.5839 19.3263 59.3721 18.8675 58.7164 17.9247C56.7495 19.9313 55.3575 20.5313 52.8056 20.5313C49.7897 20.5313 47.4395 18.6709 47.4395 14.9451C47.4395 12.036 49.018 10.0547 51.2623 9.08665C53.2091 8.22955 55.9274 8.07831 58.0053 7.84135V7.37751C58.0053 6.52546 58.0709 5.51712 57.5716 4.78103C57.1328 4.12057 56.2956 3.84832 55.5593 3.84832C54.1925 3.84832 52.972 4.54911 52.6745 6.00112C52.614 6.32379 52.3769 6.64142 52.0541 6.65655L48.5742 6.28346C48.2817 6.21792 47.9589 5.98096 48.0396 5.53225C48.8415 1.31739 52.6493 0.046875 56.0586 0.046875C57.8036 0.046875 60.0832 0.510711 61.46 1.83164C63.205 3.46011 63.0386 5.63308 63.0386 7.99764V13.5838C63.0386 15.2627 63.7346 15.9988 64.3902 16.9063C64.6222 17.229 64.6727 17.6172 64.3801 17.8592C63.6489 18.4693 62.3477 19.6036 61.6315 20.2389L61.6214 20.2288Z" fill="#221F1F"/>
<path d="M10.9965 11.4915V10.7151C8.40423 10.7151 5.66568 11.2697 5.66568 14.325C5.66568 15.8728 6.46758 16.9215 7.84442 16.9215C8.8531 16.9215 9.75586 16.3013 10.3258 15.293C11.0318 14.0527 10.9965 12.8881 10.9965 11.4915ZM14.6126 20.2288C14.3756 20.4406 14.0326 20.4557 13.7653 20.3145C12.5751 19.3263 12.3633 18.8675 11.7076 17.9247C9.74073 19.9313 8.34876 20.5313 5.79681 20.5313C2.78087 20.5313 0.430664 18.6709 0.430664 14.9451C0.430664 12.036 2.00924 10.0547 4.25354 9.08665C6.20028 8.22955 8.91866 8.07831 10.9965 7.84135V7.37751C10.9965 6.52546 11.0621 5.51712 10.5628 4.78103C10.124 4.12057 9.28683 3.84832 8.55049 3.84832C7.18374 3.84832 5.96324 4.54911 5.66568 6.00112C5.60516 6.32379 5.36812 6.64142 5.04535 6.65655L1.56542 6.28346C1.27291 6.21792 0.95013 5.98096 1.03082 5.53225C1.83272 1.31739 5.64047 0.046875 9.04979 0.046875C10.7948 0.046875 13.0744 0.510711 14.4512 1.83164C16.1962 3.46011 16.0298 5.63308 16.0298 7.99764V13.5838C16.0298 15.2627 16.7258 15.9988 17.3814 16.9063C17.6134 17.229 17.6639 17.6172 17.3714 17.8592C16.6401 18.4693 15.3389 19.6036 14.6227 20.2389L14.6126 20.2288Z" fill="#221F1F"/>
</g>
<defs>
<clipPath id="clip0_195_4833">
<rect width="116" height="35" fill="white" transform="translate(0.360352)"/>
</clipPath>
</defs>
</svg>
