<svg width="106" height="35" viewBox="0 0 106 35" fill="none" xmlns="http://www.w3.org/2000/svg">
<g clip-path="url(#clip0_195_4826)">
<path d="M45.1085 18.5545C45.1085 23.5764 41.2154 27.277 36.4376 27.277C31.6598 27.277 27.7666 23.5764 27.7666 18.5545C27.7666 13.4972 31.6598 9.83203 36.4376 9.83203C41.2154 9.83203 45.1085 13.4972 45.1085 18.5545ZM41.3128 18.5545C41.3128 15.4163 39.0564 13.2691 36.4376 13.2691C33.8187 13.2691 31.5623 15.4163 31.5623 18.5545C31.5623 21.6612 33.8187 23.8399 36.4376 23.8399C39.0564 23.8399 41.3128 21.6573 41.3128 18.5545Z" fill="black"/>
<path d="M63.8146 18.5545C63.8146 23.5764 59.9214 27.277 55.1436 27.277C50.3658 27.277 46.4727 23.5764 46.4727 18.5545C46.4727 13.5011 50.3658 9.83203 55.1436 9.83203C59.9214 9.83203 63.8146 13.4972 63.8146 18.5545ZM60.0188 18.5545C60.0188 15.4163 57.7624 13.2691 55.1436 13.2691C52.5248 13.2691 50.2684 15.4163 50.2684 18.5545C50.2684 21.6612 52.5248 23.8399 55.1436 23.8399C57.7624 23.8399 60.0188 21.6573 60.0188 18.5545Z" fill="#979797"/>
<path d="M81.7412 10.359V26.0185C81.7412 32.4601 77.9766 35.091 73.5262 35.091C69.3369 35.091 66.8155 32.2635 65.8646 29.9511L69.1693 28.5629C69.7577 29.9826 71.1997 31.6579 73.5223 31.6579C76.371 31.6579 78.1364 29.8843 78.1364 26.5455V25.291H78.0039C77.1544 26.3489 75.5176 27.273 73.4521 27.273C69.1303 27.273 65.1709 23.4742 65.1709 18.586C65.1709 13.6624 69.1303 9.83203 73.4521 9.83203C75.5137 9.83203 77.1505 10.7562 78.0039 11.7826H78.1364V10.3629H81.7412V10.359ZM78.4053 18.586C78.4053 15.5146 76.3749 13.2691 73.7912 13.2691C71.1724 13.2691 68.9783 15.5146 68.9783 18.586C68.9783 21.6259 71.1724 23.8399 73.7912 23.8399C76.3749 23.8399 78.4053 21.6259 78.4053 18.586Z" fill="black"/>
<path d="M87.6837 1.17981V26.7416H83.9814V1.17981H87.6837Z" fill="#2B2B2B"/>
<path d="M102.11 21.4253L105.057 23.4073C104.106 24.827 101.814 27.2731 97.8548 27.2731C92.9445 27.2731 89.2773 23.4427 89.2773 18.5506C89.2773 13.3635 92.9757 9.82812 97.43 9.82812C101.916 9.82812 104.11 13.4304 104.827 15.377L105.22 16.368L93.6654 21.1972C94.5501 22.9472 95.9257 23.8399 97.8548 23.8399C99.7877 23.8399 101.128 22.8804 102.11 21.4253ZM93.0419 18.2871L100.766 15.0506C100.341 13.9613 99.0629 13.2023 97.5586 13.2023C95.6295 13.2023 92.9445 14.9208 93.0419 18.2871Z" fill="black"/>
<path d="M13.7531 16.2855V12.585H26.1106C26.2314 13.2299 26.2938 13.9928 26.2938 14.8187C26.2938 17.5951 25.5417 21.0282 23.1177 23.4743C20.76 25.9518 17.7475 27.2732 13.7569 27.2732C6.36033 27.2732 0.140625 21.1934 0.140625 13.7294C0.140625 6.26532 6.36033 0.185547 13.7569 0.185547C17.8489 0.185547 20.7639 1.80577 22.954 3.91757L20.3664 6.52881C18.7958 5.04229 16.6681 3.88611 13.7531 3.88611C8.35173 3.88611 4.12732 8.2788 4.12732 13.7294C4.12732 19.1799 8.35173 23.5726 13.7531 23.5726C17.2565 23.5726 19.2518 22.153 20.53 20.8631C21.5667 19.817 22.2486 18.3226 22.5175 16.2816L13.7531 16.2855Z" fill="black"/>
</g>
<defs>
<clipPath id="clip0_195_4826">
<rect width="106" height="35" fill="white"/>
</clipPath>
</defs>
</svg>
