<svg width="90" height="35" viewBox="0 0 90 35" fill="none" xmlns="http://www.w3.org/2000/svg">
<g clip-path="url(#clip0_195_4842)">
<path d="M0.360352 0V2.39461H17.684V0H0.360352ZM20.1385 0V2.39461H44.8256C44.8256 2.39461 42.3039 0 38.9641 0H20.1385ZM49.6684 0V2.39461H64.6037L63.7172 0H49.6684ZM75.3115 0L74.425 2.39461H89.2247V0H75.3115ZM0.360352 4.65692V7.05154H17.684V4.65692H0.360352ZM20.1385 4.66034V7.05162H47.6902C47.6902 7.05162 47.3685 5.20861 46.8071 4.66034H20.1385ZM49.6684 4.66034V7.05162H66.2412L65.4207 4.66034H49.6684ZM73.5385 4.66034L72.718 7.05162H89.2247V4.66034H73.5385ZM5.33874 9.31385V11.7119H12.8412V9.31385H5.33874ZM25.1169 9.31385V11.7119H32.6194V9.31385H25.1169ZM39.9167 9.31385V11.7119H47.4191C47.4191 11.7119 47.8954 10.4455 47.8954 9.31385H39.9167ZM54.6469 9.31385V11.7119H67.9482L67.0617 9.31385H54.6469ZM71.9045 9.31385L71.0145 11.7119H84.3819V9.31385H71.9045ZM5.33874 13.9743V16.3689H12.8412V13.9743H5.33874ZM25.1169 13.9743V16.3689H44.2797C44.2797 16.3689 45.8828 15.1402 46.3935 13.9743H25.1169ZM54.6469 13.9743V16.3689H62.1493V15.0359L62.6256 16.3689H76.3685L76.8795 15.0359V16.3689H84.382V13.9743H70.2983L69.5509 16.0025L68.7999 13.9743H54.6469ZM5.33874 18.6312V21.0258H12.8412V18.6312H5.33874ZM25.1169 18.6312V21.0258H46.3935C45.8827 19.8637 44.2797 18.6312 44.2797 18.6312H25.1169ZM54.6469 18.6312V21.0258H62.1493V18.6312H54.6469ZM63.5121 18.6312L64.4194 21.0258H74.7239L75.5862 18.6312H63.5121ZM76.8794 18.6312V21.0258H84.3819V18.6312H76.8794ZM5.33874 23.2881V25.6826H12.8412V23.2881H5.33874ZM25.1169 23.2881V25.6826H32.6194V23.2881H25.1169ZM39.9167 23.2881V25.6826H47.8953C47.8953 24.5526 47.419 23.2881 47.419 23.2881H39.9167ZM54.6469 23.2881V25.6826H62.1493V23.2881H54.6469ZM65.2156 23.2881L66.0952 25.6826H73.0031L73.8897 23.2881H65.2156ZM76.8794 23.2881V25.6826H84.3819V23.2881H76.8794ZM0.495899 27.9451V30.3431H17.8196V27.9451H0.495899ZM20.1385 27.9451V30.3431H46.8071C47.3685 29.794 47.6902 27.9451 47.6902 27.9451H20.1385ZM49.804 27.9451V30.3431H62.1493V27.9451H49.804ZM66.9226 27.9451L67.8264 30.3431H71.3412L72.1895 27.9451H66.9226ZM76.8794 27.9451V30.3431H89.3604V27.9451H76.8794ZM0.495899 32.6054V35H17.8196V32.6054H0.495899ZM20.1385 32.6054V34.9966H38.9641C42.3039 34.9966 44.8256 32.6054 44.8256 32.6054H20.1385ZM49.804 32.6054V35H62.1493V32.6054H49.804ZM68.6365 32.6054L69.5057 34.9933L69.6552 34.9966L70.5383 32.6054H68.6365ZM76.8794 32.6054V35H89.3604V32.6054H76.8794Z" fill="#393939"/>
</g>
<defs>
<clipPath id="clip0_195_4842">
<rect width="89" height="35" fill="white" transform="translate(0.360352)"/>
</clipPath>
</defs>
</svg>
