<svg width="195" height="35" viewBox="0 0 195 35" fill="none" xmlns="http://www.w3.org/2000/svg">
<path fill-rule="evenodd" clip-rule="evenodd" d="M189.074 27.1353C188.692 27.1281 188.313 27.1971 187.959 27.3381C187.604 27.4791 187.282 27.6894 187.009 27.9566C186.737 28.2238 186.521 28.5427 186.373 28.8944C186.225 29.2462 186.149 29.6239 186.149 30.0054C186.149 30.3868 186.225 30.7645 186.373 31.1163C186.521 31.468 186.737 31.7869 187.009 32.0541C187.282 32.3213 187.604 32.5316 187.959 32.6726C188.313 32.8136 188.692 32.8826 189.074 32.8754C189.451 32.875 189.824 32.8003 190.172 32.6554C190.52 32.5105 190.836 32.2984 191.102 32.0311C191.368 31.7639 191.578 31.4469 191.722 31.0981C191.865 30.7494 191.938 30.3758 191.936 29.9988C191.936 29.6228 191.862 29.2505 191.719 28.9031C191.575 28.5556 191.364 28.24 191.098 27.974C190.832 27.7081 190.517 27.4972 190.169 27.3533C189.822 27.2093 189.45 27.1353 189.074 27.1353ZM189.074 32.5302C188.742 32.5306 188.413 32.4653 188.106 32.3382C187.799 32.211 187.52 32.0245 187.285 31.7892C187.051 31.554 186.865 31.2747 186.739 30.9675C186.612 30.6602 186.548 30.331 186.549 29.9988C186.55 29.6677 186.615 29.3398 186.742 29.034C186.869 28.7282 187.055 28.4504 187.29 28.2166C187.524 27.9828 187.802 27.7975 188.108 27.6714C188.415 27.5452 188.743 27.4807 189.074 27.4815C189.404 27.4815 189.732 27.5466 190.037 27.6731C190.342 27.7997 190.62 27.9851 190.853 28.2189C191.087 28.4526 191.272 28.7302 191.399 29.0356C191.525 29.341 191.59 29.6683 191.59 29.9988C191.592 30.3304 191.528 30.6591 191.402 30.9659C191.276 31.2728 191.091 31.5518 190.858 31.787C190.624 32.0222 190.346 32.2089 190.04 32.3364C189.734 32.4639 189.405 32.5298 189.074 32.5302Z" fill="black"/>
<path fill-rule="evenodd" clip-rule="evenodd" d="M190.546 29.2475C190.546 28.9768 190.426 28.6919 190.187 28.5561C189.945 28.4131 189.675 28.399 189.405 28.399H188.007V31.6068H188.398V30.1272H189.12L190.036 31.6068H190.502L189.532 30.1272C190.104 30.1111 190.546 29.8786 190.546 29.2475ZM188.999 29.8182H188.397V28.6839H189.313C189.712 28.6839 190.148 28.7443 190.148 29.2405C190.149 29.8937 189.449 29.8182 188.999 29.8182ZM172.25 13.7391L178.118 7.47357C178.458 7.0136 178.627 6.69151 178.627 6.41573C178.627 5.95575 178.231 5.77156 176.987 5.77156H175.507V1.81595H191.532V5.77156H189.427C186.995 5.77156 186.543 6.13894 183.15 10.4166L173.867 20.4415V26.5591C173.867 28.1243 174.657 28.6748 176.92 28.6748H180.424V32.4915H157.978V28.6748H161.483C163.743 28.6748 164.536 28.1243 164.536 26.5591V20.4415L153.602 8.34623C151.795 6.23154 152.045 5.77156 147.014 5.77156V1.81595H167.314V5.77156H165.868C164.398 5.77156 163.775 6.04734 163.775 6.59892C163.775 7.0599 164.227 7.42727 164.509 7.79465L170.041 13.8237C170.698 14.5071 171.501 14.5957 172.25 13.7391ZM36.0508 1.81494H40.9475V12.8524H36.4252C36.0246 10.6461 34.6436 9.78756 33.3845 8.63006C31.1128 6.54255 26.1929 4.80429 22.0551 4.80429C16.7146 4.80429 12.2074 6.46102 12.2074 8.89679C12.2074 15.6586 42.7501 10.2777 42.7501 23.0625C42.7501 29.7307 36.2078 33.4558 24.4587 33.4558C20.3914 33.4558 14.2365 32.1936 10.605 30.2651C9.46664 29.6079 8.98351 30.8872 8.77013 32.4905H3.74963V21.0847H8.29103C9.29251 23.9825 10.6724 24.5793 11.9417 25.7298C14.1439 27.7539 19.3859 29.2264 24.193 29.1791C31.4409 29.1076 33.933 27.5234 33.933 25.2235C33.933 22.9246 31.4681 22.372 23.5257 21.131L16.782 20.0268C9.17173 18.8764 3.63086 17.1754 3.63086 11.1051C3.63086 4.80429 10.6402 0.848682 21.723 0.848682C26.3932 0.848682 30.3005 1.47273 34.0508 3.59245C35.0895 4.26782 36.0638 4.34835 36.0508 1.81494ZM131.613 20.2946L131.71 8.02716C131.71 6.41774 130.873 5.86617 128.48 5.86617H125.669V2.04946H143.555V5.86617H141.224C138.829 5.86617 137.992 6.41875 137.992 8.02716V32.7241L130.991 32.6687L108.321 11.2007V26.7916C108.321 28.3558 109.158 28.9526 111.551 28.9526H114.663V32.7241H96.0874V28.9526H99.1654C101.558 28.9526 102.395 28.3548 102.395 26.7916V8.02716C102.395 6.41774 101.558 5.86617 99.1654 5.86617H96.0874V2.04946H112.147L131.613 20.2946ZM71.7026 0.617188C57.4483 0.617188 48.5255 6.91898 48.5255 17.0355C48.5255 26.9708 57.3245 33.2243 71.2677 33.2243C86.0776 33.2243 94.6924 27.0624 94.6924 16.5302C94.6934 7.05688 85.3972 0.617188 71.7026 0.617188ZM71.3785 29.2244C63.4884 29.2244 58.953 24.6709 58.953 16.806C58.953 9.12628 63.6857 4.5728 71.773 4.5728C79.5312 4.5728 84.0666 9.21888 84.0666 17.1291C84.0666 24.8551 79.4648 29.2244 71.3785 29.2244Z" fill="black"/>
</svg>
