<svg width="472" height="795" viewBox="0 0 472 795" fill="none" xmlns="http://www.w3.org/2000/svg">
<path d="M357.951 720.208C382.226 702.467 387.858 648.173 388.59 618.153C381.268 593.371 386.281 563.014 402.276 542.738C409.936 533.051 421.257 527.024 428.353 516.886C435.45 506.748 439.899 494.189 437.928 481.967C437.365 478.588 439.956 474.307 439.055 471.04C438.097 467.717 435.619 464.676 432.24 464C428.41 463.212 424.58 465.465 422.045 468.45C419.567 471.491 418.047 475.152 415.963 478.475C409.542 488.838 397.433 495.315 385.267 494.977C376.425 494.696 366.512 487.261 359.922 481.347C357.444 486.191 355.304 491.711 353.22 496.836C345.448 497.512 337.281 493.4 330.241 490.077C323.201 486.754 316.16 482.981 308.444 482.023C309.514 474.082 313.063 468.393 317.343 461.635C321.567 454.82 326.749 447.16 326.749 439.162C320.554 439.05 314.245 438.937 308.163 437.585C302.08 436.234 296.11 433.643 291.773 429.193C289.013 426.321 286.986 422.716 286.197 418.886C282.48 414.381 282.987 407.453 283.832 402.103C284.282 399.061 284.789 395.963 285.972 393.091C286.254 392.359 286.591 391.796 286.986 391.176C286.929 385.375 287.155 379.63 289.239 373.942C290.534 370.393 292.111 366.789 292.787 363.072C293.463 359.354 293.237 355.187 291.097 352.032C288.844 348.766 284.902 346.964 281.016 346.682C277.073 346.457 273.131 347.583 269.582 349.216C255.615 355.637 246.152 369.492 241.816 384.192C237.535 398.949 237.704 414.55 238.605 429.869C239.506 445.189 241.083 460.621 239.394 475.828C237.704 491.035 225.764 516.717 214.838 527.419C202.334 539.697 196.815 541.612 183.861 553.327C159.755 575.179 148.828 610.55 156.375 642.202C163.923 673.855 189.662 700.495 220.977 709.169C229.538 711.535 237.254 719.926 245.758 722.686C264.063 728.487 283.888 733.444 303.15 734.345C322.412 735.359 342.519 731.585 357.951 720.208Z" fill="white"/>
<path d="M356.936 488.277C360.653 473.858 366.848 460.679 371.636 446.655C376.311 432.969 378.958 418.832 382.393 404.808C385.773 391.065 389.602 377.435 392.982 363.693C394.052 359.356 395.291 354.738 395.798 350.176C401.824 333.786 407.513 317.284 413.258 300.725C421.481 276.845 431.844 253.302 437.42 228.577C439.335 220.129 443.277 211.342 446.262 202.5C451.444 195.967 453.809 186.054 456.006 178.901C458.822 169.664 462.708 160.596 465.468 151.191C467.89 148.093 470.931 145.502 473.522 142.573C474.423 141.56 475.606 139.926 476.169 138.237C477.014 137.842 477.802 137.504 478.647 137.11C485.913 133.675 489.968 127.705 492.446 120.157C495.487 110.921 494.755 101.064 497.515 91.7712C499.43 85.3505 502.359 79.4931 501.063 72.7908C501.908 71.1574 502.753 69.5241 503.654 67.9471C506.132 64.5678 509.117 61.4701 512.609 58.7667C517.059 55.331 521.959 52.5712 526.07 48.5724C531.928 42.9402 536.152 34.9989 530.914 29.3104C530.069 26.8885 528.605 24.6356 526.352 23.3965C525.789 23.0586 525.113 22.8334 524.493 22.777C520.945 19.792 516.101 18.6655 510.469 20.4678C497.628 24.6357 489.236 39.8989 481.576 49.9241C481.069 50.5437 480.788 51.2759 480.675 51.8391C475.381 55.669 471.156 60.569 467.27 65.8069C464.567 68.8483 462.089 72.1149 460.005 75.8885L459.948 75.9448C459.667 76.2264 459.442 76.4517 459.16 76.7333C452.57 83.2103 445.586 89.8563 440.63 97.7413C439.053 100.219 437.814 102.81 436.856 105.457C432.745 106.077 430.379 110.695 429.478 114.413C428.239 119.369 429.816 124.213 429.14 129.169C429.028 129.732 429.084 130.239 429.197 130.802C427.62 135.533 426.155 140.377 425.536 145.502C425.31 147.417 425.986 148.656 427.057 149.501C423.79 157.048 421.03 164.764 421.368 172.199C419.34 176.141 417.482 180.14 415.792 184.308C406.274 207.456 397.15 230.773 388.814 254.429C380.647 277.464 374.001 300.894 367.468 324.437C361.611 345.501 349.163 364.819 347.755 386.841C347.192 387.517 346.742 388.193 346.404 389.094C341.447 403.738 333.393 416.973 328.268 431.561C323.312 445.641 320.439 460.228 311.709 472.676C309.963 475.21 310.132 478.758 312.104 481.067C314.469 483.884 316.553 485.066 319.088 485.911C320.439 486.812 322.016 487.488 323.875 487.995C324.663 488.22 325.677 488.22 326.804 488.22C331.816 489.966 334.914 492.163 340.771 491.6C340.884 491.6 340.997 491.6 341.109 491.487C342.686 492.388 344.151 493.177 345.333 493.458C349.727 494.697 355.697 493.346 356.936 488.277Z" fill="#007784"/>
<path d="M193.436 669.916C186.621 665.354 190.507 655.159 189.437 648.232C188.31 640.91 183.917 637.193 183.974 629.139C184.03 624.013 184.931 620.071 183.523 614.946C181.158 605.934 172.259 596.697 178.623 586.841C178.679 586.785 178.567 586.672 178.51 586.728C177.328 588.024 176.427 589.263 175.751 590.614C175.525 590.614 175.244 590.671 175.075 590.952C174.455 591.91 174.117 592.924 173.779 593.937C173.273 593.994 172.878 594.275 172.709 594.895C172.202 596.416 171.639 597.88 171.076 599.344C170.907 599.739 171.02 600.189 171.189 600.471C167.528 614.382 162.684 636.46 174.455 644.627C175.807 648.457 177.215 652.231 178.398 655.779C179.918 660.566 182.228 663.439 186.339 666.198C186.677 666.424 187.184 666.367 187.466 666.086C188.817 668.451 190.563 670.535 192.647 671.493C193.548 671.943 194.281 670.422 193.436 669.916Z" fill="black"/>
<path d="M258.488 378.112C259.727 375.972 260.797 373.776 261.923 371.523C263.951 369.946 266.542 368.932 268.682 368.707C269.414 368.65 270.203 368.538 271.047 368.481C271.892 368.538 272.737 368.707 273.582 368.988C276.285 370.002 277.243 371.635 278.989 373.719C279.158 373.888 279.383 374.001 279.665 374.057C279.721 374.226 279.89 374.282 280.003 374.17C279.946 374.226 279.946 374.339 279.89 374.395C282.706 374.733 284.79 371.072 285.635 368.875C286.761 365.609 286.48 361.61 284.734 358.625C282.481 354.795 278.313 353.556 274.427 354.288L274.314 354.288C264.908 355.02 261.078 364.482 258.262 372.593C257.361 374.057 256.685 375.522 256.685 377.324C256.629 378.281 257.924 379.013 258.488 378.112Z" fill="black"/>
<path d="M315.429 724.433C316.049 724.151 315.88 723.081 315.204 723.081C300.223 723.532 290.479 709.507 276.793 705.283C271.161 703.594 265.472 703.425 259.671 702.918C252.518 702.298 245.703 700.327 238.607 699.764C238.381 699.764 238.212 699.82 238.1 699.933C237.311 699.82 236.466 699.876 236.41 700.158C236.41 700.158 236.466 700.214 236.41 700.271C236.241 700.214 236.128 700.214 235.959 700.158C236.128 700.214 236.241 700.327 236.41 700.383C236.579 700.778 237.086 700.947 237.705 701.116C250.885 709.113 264.627 715.421 278.877 721.335C289.747 726.01 304.109 728.657 315.429 724.433Z" fill="black"/>
<path d="M197.042 557.607C207.743 547.694 221.767 544.371 231.68 533.332C240.184 523.813 242.043 513.169 244.071 501.003C244.127 500.722 243.676 500.609 243.62 500.891C237.537 513.845 232.243 525.447 220.979 534.796C212.587 541.724 203.406 548.651 196.591 557.156C196.31 557.438 196.76 557.888 197.042 557.607Z" fill="black"/>
<path d="M426.495 511.314C427.17 510.188 428.297 507.597 427.903 506.301C427.621 505.344 426.945 504.668 426.157 504.443C425.65 504.049 425.03 503.88 424.354 503.992C421.426 504.668 419.342 507.878 419.116 510.695C419.004 512.272 420.187 513.792 421.82 513.961C423.847 514.074 425.424 512.947 426.495 511.314Z" fill="black"/>
<path d="M419.23 517.902C418.78 515.536 415.119 516.156 415.513 518.578C415.964 520.943 419.681 520.267 419.23 517.902Z" fill="black"/>
<path d="M315.037 719.534C315.6 718.971 315.769 718.239 315.656 717.45C315.656 717.225 315.713 717.056 315.656 716.774C315.544 715.873 314.811 715.028 313.967 714.747C313.798 714.69 313.516 714.634 313.347 714.578C313.291 714.521 313.234 714.465 313.122 714.465C313.065 714.409 312.953 714.409 312.897 714.352C312.502 714.183 312.052 714.183 311.657 714.24C310.137 713.733 308.391 714.465 307.771 715.986C307.264 717.281 307.602 718.295 308.334 719.027C308.391 719.083 308.334 719.14 308.391 719.196C309.179 720.773 311.038 721.393 312.728 721.055C313.741 720.829 314.53 720.266 315.037 719.534Z" fill="black"/>
<path d="M306.588 714.688C306.138 712.323 302.533 712.999 302.927 715.308C303.322 717.73 306.983 717.11 306.588 714.688Z" fill="black"/>
<path d="M214.501 554.452C215.796 553.832 216.078 552.537 215.627 551.41C215.459 550.115 213.938 549.157 212.642 549.326C212.53 549.326 212.473 549.383 212.361 549.383C210.559 549.383 208.7 550.678 208.193 552.537C207.911 553.719 208.249 555.409 209.657 555.691C211.685 556.254 213.431 555.747 214.501 554.452Z" fill="black"/>
<path d="M207.573 556.988C207.629 555.58 206.278 554.453 204.926 555.129C204.926 555.129 204.869 555.186 204.813 555.129C203.687 555.693 203.574 557.044 204.25 557.945C205.095 559.128 207.517 558.621 207.573 556.988Z" fill="black"/>
<path d="M270.765 377.547C272.229 378.561 274.257 378.786 275.609 377.434C275.721 377.322 275.834 377.209 275.947 377.096C276.116 376.928 276.228 376.815 276.397 376.646C277.467 375.125 277.186 373.379 276.172 371.915C276.172 371.915 276.172 371.915 276.116 371.859C275.834 371.352 275.44 370.845 274.933 370.45C272.849 368.817 269.808 369.718 268.963 372.253C268.738 372.929 268.681 373.661 268.794 374.337C268.906 375.688 269.695 376.815 270.765 377.547Z" fill="black"/>
<path d="M268.175 375.406C268.231 374.9 268.119 374.449 267.894 373.998C267.274 372.703 265.528 372.647 264.683 373.717L264.627 373.773C263.782 374.843 264.627 376.251 265.697 376.646C266.767 377.152 268.006 376.589 268.175 375.406Z" fill="black"/>
<path d="M365.162 657.918C366.626 651.384 365.5 644.4 366.063 637.754C366.852 629.081 366.626 620.295 366.57 611.565C367.021 607.96 367.415 604.299 367.415 600.695C367.415 598.892 367.246 597.259 366.964 595.738C367.584 585.094 369.161 574.73 372.709 564.424C376.032 554.792 382.453 547.133 385.832 537.783C386.001 537.389 386.057 536.882 386.057 536.432C392.084 528.152 398.561 520.211 405.263 512.27C414.725 500.893 423.624 496.837 422.441 481.461C422.441 481.011 422.385 480.504 422.385 480.053C421.709 474.083 412.134 475.66 413.092 481.687C413.824 486.024 401.377 494.078 399.293 494.81C392.591 497.232 386.677 496.499 380.819 494.472C377.834 492.951 374.906 491.374 371.526 490.586C371.245 490.529 371.076 490.473 370.794 490.417C368.879 488.276 366.288 485.235 364.655 484.39C361.726 482.813 360.037 482.137 357.333 484.278C356.319 485.066 356.432 486.418 357.221 487.319L357.108 487.319C357.277 487.488 357.39 487.713 357.559 487.882C354.799 490.191 352.996 493.12 351.645 496.387C349.617 495.26 347.59 494.134 345.562 493.12C340.437 490.586 333.509 487.826 328.046 490.811C322.245 488.051 316.669 485.855 310.023 484.052C311.262 480.11 313.008 476.336 313.797 472.168C314.472 468.339 315.036 464.621 315.205 460.735C315.261 460.003 314.867 459.496 314.191 459.158C313.796 458.989 313.459 458.876 313.064 458.82C312.726 458.482 312.388 458.144 311.994 457.975L312.051 457.919C303.997 454.596 280.51 438.995 278.483 457.018C277.751 463.044 280.398 468.958 280.06 475.041C279.778 480.729 279.384 487.094 277.356 492.501C276.343 495.317 275.272 496.612 275.667 499.034C271.612 501.737 268.007 505.117 264.797 508.665C257.306 516.832 249.308 525.392 243.169 534.573C233.932 548.541 228.469 567.071 232.074 583.855C233.82 592.134 237.424 598.555 242.381 603.849C241.761 605.595 242.099 607.622 244.07 609.143C249.195 613.029 255.165 616.972 261.586 618.323C260.347 621.14 261.98 624.237 265.36 624.913C265.923 625.026 266.543 625.195 267.106 625.307C269.302 627.842 272.456 629.306 275.61 630.658C282.876 633.756 288.902 636.741 295.379 641.415C297.688 643.049 301.744 642.148 302.532 639.219C303.264 636.684 304.222 633.474 305.348 630.32C312.051 632.629 318.077 629.982 324.554 636.572C328.891 640.909 331.425 647.386 335.311 652.286C339.592 657.692 347.364 671.21 355.306 671.491C362.796 671.66 365.444 665.521 365.162 657.918Z" fill="#CCCCCC"/>
<path d="M423.852 270.873C418.839 268.226 413.263 266.818 407.913 264.959C402.675 263.1 396.93 260.51 391.298 260.172C388.989 260.003 386.792 263.1 388.763 264.959C392.537 268.62 398.507 269.521 403.407 271.267C409.039 273.295 414.953 274.815 420.472 277.181C424.246 278.814 427.513 272.844 423.852 270.873Z" fill="#CCCCCC"/>
<path d="M410.558 313.677C409.319 309.058 403.18 308.551 399.181 307.369C392.028 305.285 384.593 301.68 377.103 301.849C374.118 301.905 371.808 305.904 374.906 307.875C377.44 309.509 380.031 309.847 382.904 310.692C386.734 311.818 390.451 313.395 394.281 314.521C397.942 315.592 403.912 318.52 407.742 317.844C409.488 317.45 411.065 315.535 410.558 313.677Z" fill="#CCCCCC"/>
<path d="M395.747 356.088C394.451 350.625 385.778 350.062 381.159 348.597C375.414 346.795 367.98 344.091 361.897 345.218C360.658 345.443 360.095 346.682 360.602 347.752C362.686 352.878 371.303 353.385 375.752 354.68C380.765 356.088 388.368 360.425 393.55 359.186C394.902 358.96 396.141 357.609 395.747 356.088Z" fill="#CCCCCC"/>
<path d="M383.915 389.433C379.072 385.152 369.948 383.913 363.809 382.054C360.148 380.984 351.418 376.76 348.32 379.858C347.982 380.196 347.813 380.703 348.039 381.153C350.46 385.715 358.514 386.335 362.964 387.743C369.272 389.77 375.805 392.587 382.338 393.826C384.986 394.333 385.549 390.841 383.915 389.433Z" fill="#CCCCCC"/>
<path d="M375.752 425.983C373.105 422.209 364.601 420.576 360.602 418.943C354.012 416.295 345.226 410.438 337.96 411.396C335.877 411.677 335.708 414.212 337.116 415.394C342.241 419.844 350.07 421.815 356.321 424.237C360.883 426.096 367.698 427.504 371.641 430.545C374.57 432.798 377.667 428.686 375.752 425.983Z" fill="#CCCCCC"/>
<path d="M362.517 461.411C362.63 459.609 361.616 458.144 359.983 457.412C348.944 452.343 337.06 451.498 325.457 448.795C324.106 448.457 322.191 449.809 323.148 451.329C327.71 458.482 339.481 458.764 346.803 461.017C350.014 461.974 362.123 468.789 362.517 461.411Z" fill="#CCCCCC"/>
<path d="M462.995 154.57C458.996 150.571 452.631 148.712 447.619 146.178C442.437 143.474 436.185 140.602 430.328 139.926C426.892 139.532 425.315 144.15 428.019 146.065C432.806 149.501 439.114 150.74 444.296 153.443C449.196 155.978 454.49 159.47 460.066 159.977C462.826 160.258 465.079 156.654 462.995 154.57Z" fill="#CCCCCC"/>
<path d="M449.363 193.094C443.28 190.841 437.986 186.898 431.903 184.758C429.481 183.913 427.003 183.463 424.638 182.674C422.272 181.886 420.582 180.647 418.048 181.041C417.147 181.153 416.189 182.111 416.189 183.012C416.415 188.532 422.835 189.771 427.172 191.179C433.987 193.488 439.957 197.881 446.659 200.528C451.39 202.443 454.15 194.952 449.363 193.094Z" fill="#CCCCCC"/>
<path d="M435.394 230.489C430.043 227.842 424.411 225.702 418.553 224.237C413.147 222.885 408.134 220.351 402.896 222.885C402.333 223.111 402.22 223.787 402.445 224.35C404.698 229.531 409.373 230.602 414.667 231.953C420.863 233.53 426.495 236.346 432.634 238.092C437.647 239.613 440.012 232.742 435.394 230.489Z" fill="#CCCCCC"/>
<path d="M298.927 641.358C303.545 639.106 305.854 626.771 307.206 622.491C307.431 621.702 307.431 620.688 306.812 620.069C298.195 611.564 284.79 606.833 274.089 601.426C273.019 600.919 271.273 601.652 270.991 602.834C269.471 609.086 264.965 613.93 262.825 620.012C262.768 620.069 262.825 620.125 262.768 620.181C260.515 620.407 260.065 624.124 262.712 624.293C268.175 624.687 274.652 628.123 279.552 631.108C279.721 631.389 280.003 631.671 280.397 631.84C284.903 634.206 293.238 644.118 298.927 641.358Z" fill="#F2F2F2"/>
<path d="M324.892 589.485C329.567 582.557 313.797 578.164 310.08 576.587C302.533 573.321 295.267 569.435 287.72 566.393C284.735 565.21 278.652 561.831 275.385 562.732C275.048 562.845 274.879 563.239 274.991 563.577C273.808 563.859 272.851 564.929 272.569 566.337C271.612 570.899 272.907 572.983 276.625 575.461C281.75 578.897 288.452 581.544 294.084 584.022C299.21 586.331 319.992 596.751 324.892 589.485Z" fill="#F2F2F2"/>
<path d="M334.185 558.455C341.507 549.782 335.762 546.853 328.609 542.741C322.02 538.968 315.036 536.377 308.052 533.448C301.631 530.745 294.985 527.14 288.227 525.563C287.776 525.451 287.494 526.07 287.945 526.295C288.001 526.352 288.001 526.352 288.114 526.352C287.72 526.633 287.438 527.14 287.72 527.647C285.861 529.393 285.354 532.716 284.566 534.969C284.284 535.814 284.735 536.715 285.579 536.997C285.636 537.391 285.805 537.672 286.143 538.01C294.929 545.67 307.094 548.261 318.246 552.091C322.864 554.907 327.708 557.723 332.439 558.962C333.228 559.187 333.735 559.018 334.185 558.455Z" fill="#F2F2F2"/>
<path d="M345.391 517.056C347.25 516.211 348.039 514.522 349.109 512.888C349.447 512.325 349.39 511.593 348.771 511.199C343.251 507.031 336.042 503.877 329.734 501.061C321.06 497.231 312.049 492.838 302.869 490.416C302.249 490.247 301.686 490.923 302.136 491.486L302.362 491.824C302.418 491.88 302.474 491.937 302.531 491.88C302.474 491.937 302.362 491.937 302.305 491.993C302.136 492.049 301.911 492.275 301.911 492.5C301.911 492.613 301.911 492.838 301.911 492.95C301.911 492.95 301.967 493.007 301.911 493.063C301.686 493.401 301.573 493.739 301.517 494.133C301.461 496.555 301.573 498.357 303.544 499.878C307.994 503.314 315.316 504.327 320.328 507.087C328.101 511.368 334.972 514.296 343.533 516.324C343.927 516.944 344.603 517.394 345.391 517.056Z" fill="#F2F2F2"/>
<path d="M259.56 605.933C259.278 605.651 258.94 605.426 258.658 605.144C258.715 604.975 258.771 604.694 258.602 604.525C254.153 599.4 251.844 581.771 252.069 576.251C252.407 567.69 245.141 561.213 246.042 552.653C246.099 552.596 245.986 552.596 245.986 552.596C246.099 552.258 246.155 551.864 246.324 551.47C246.324 551.357 246.211 551.244 246.155 551.301C230.441 568.254 237.594 599.062 259.053 606.778C259.672 607.172 260.067 606.327 259.56 605.933Z" fill="white"/>
<path d="M261.471 593.767C263.273 591.289 261.414 587.065 258.148 587.516C254.825 588.023 254.994 592.923 257.584 594.274C257.866 594.443 258.204 594.556 258.542 594.556C259.556 594.894 260.795 594.669 261.471 593.767Z" fill="white"/>
<path d="M261.36 597.033C261.36 597.033 261.304 596.977 261.248 597.033C261.135 596.92 260.966 596.864 260.797 596.808C259.84 596.413 259.164 597.427 259.445 598.272C259.614 598.779 260.008 599.061 260.515 599.23C262.036 599.624 262.656 597.653 261.36 597.033Z" fill="white"/>
<path d="M298.928 470.142C300.167 469.579 301.237 468.734 301.913 467.495C303.772 463.946 301.294 460.117 298.027 458.652C296.168 457.807 293.972 457.638 292.113 458.258C292.001 458.258 291.888 458.258 291.719 458.314C290.536 458.596 289.804 459.328 289.353 460.229C287.044 463.327 288.171 468.846 291.325 470.987C293.803 472.676 296.844 472 298.928 470.142Z" fill="white"/>
<path d="M292.957 476.672C293.014 476.165 293.014 475.714 292.788 475.264C292.169 474.081 290.423 473.687 289.522 474.701C288.733 475.264 288.452 476.334 289.128 477.122C289.184 477.179 289.24 477.235 289.296 477.291L289.353 477.348L289.409 477.404C289.466 477.46 289.578 477.573 289.578 477.686C290.592 479.15 292.732 478.249 292.957 476.672Z" fill="white"/>
<path d="M367.864 559.132C372.201 550.965 374.792 541.728 379.917 534.012C384.93 526.409 392.139 520.776 397.095 513.004C397.151 512.948 397.039 512.835 396.983 512.891C389.999 520.213 380.368 522.973 374.116 531.478C367.582 540.377 368.427 548.43 366.738 558.681C366.569 559.301 367.583 559.751 367.864 559.132Z" fill="white"/>
<path d="M365.386 548.994C366.231 543.756 367.808 538.8 370.117 534.013C371.919 530.183 376.932 527.31 377.214 522.974L377.157 522.917C364.992 524.607 362.345 539.082 364.203 549.051C364.316 549.726 365.273 549.67 365.386 548.994Z" fill="white"/>
<path d="M353.955 660.45C356.095 659.774 357.728 657.915 358.404 655.775C358.855 654.423 358.855 652.959 358.573 651.664C358.517 650.706 358.123 649.861 357.616 649.129L357.559 649.073C356.32 647.27 354.18 646.144 351.42 646.538C348.773 646.932 346.239 648.904 345.844 651.663C345.732 652.677 345.901 653.635 346.239 654.423C346.295 655.831 346.689 657.239 347.59 658.366C348.999 660.337 351.589 661.126 353.955 660.45Z" fill="white"/>
<path d="M505.855 24.7481C511.431 19.2849 521.006 19.1723 526.863 24.4665C533.34 30.2677 532.608 40.9125 527.426 47.2205C522.752 53.0216 515.261 54.5423 509.516 58.9354C503.433 63.6665 501.518 70.763 499.885 77.9159C497.914 86.6458 495.999 95.3193 494.084 103.993C493.183 108.161 492.225 112.385 491.324 116.553C490.198 121.734 489.409 127.817 485.072 131.365C482.425 133.562 478.877 134.407 475.892 136.04C473.02 137.673 470.541 139.701 468.401 142.292C463.332 148.6 460.91 156.541 458.32 164.088C434.439 233.026 411.347 302.189 388.987 371.634C376.315 411.003 363.924 450.428 351.759 489.853C350.632 493.458 356.208 495.317 357.391 491.656C380.652 416.128 404.814 340.826 429.877 265.862C436.129 247.107 442.437 228.408 448.858 209.709C455.109 191.404 460.404 172.368 468.007 154.626C469.978 150.064 472.456 145.558 476.568 142.573C479.891 140.151 483.89 139.194 487.382 136.941C494.478 132.323 495.661 123.931 497.351 116.271C499.435 106.865 501.518 97.4596 503.546 88.1102C505.574 78.8734 506.08 67.8906 514.078 61.6952C520.443 56.7952 528.328 53.8665 532.157 46.3194C534.805 41.0814 535.537 34.7171 533.453 29.1412C529.116 17.5953 512.895 13.9907 505.123 24.1286C504.841 24.5228 505.517 25.086 505.855 24.7481Z" fill="black"/>
<path d="M521.627 19.5623C510.644 17.4784 501.295 25.1381 494.142 32.5163C482.201 44.6818 471.275 58.0864 459.954 70.8715C453.928 77.6864 447.901 84.5013 441.875 91.3163C436.975 96.8921 432.357 102.862 429.822 109.902C427.175 117.168 427.175 125.053 426.049 132.6C424.697 141.724 422.444 150.623 419.853 159.522C409.772 193.822 397.212 227.446 385.779 261.295C374.233 295.595 362.574 329.895 350.521 364.026C336.779 402.888 322.36 441.525 306.759 479.655C305.407 482.922 310.645 484.555 311.941 481.345C338.299 417.025 361.053 351.241 383.3 285.401C394.565 252.059 405.885 218.66 417.15 185.317C422.162 170.392 427.231 155.41 430.16 139.866C431.681 131.699 431.737 123.307 433.596 115.253C435.511 106.917 440.692 100.159 445.987 93.6254C457.927 78.8691 470.824 64.845 483.215 50.4266C492.959 39.106 504.223 19.9566 521.401 20.6887C521.965 20.6887 522.19 19.6749 521.627 19.5623Z" fill="black"/>
<path d="M308.616 482.081C310.981 486.586 316.388 487.375 320.95 488.896C327.258 491.036 333.51 493.12 339.762 495.429C343.141 496.668 348.21 500.047 351.983 498.752C355.701 497.513 356.545 491.937 356.771 488.558C356.827 487.488 355.475 486.699 354.574 487.488C353.222 488.727 352.378 490.473 351.139 491.712C349.336 493.627 349.899 493.176 347.365 492.444C342.409 490.867 337.509 488.67 332.665 486.868C328.047 485.178 323.428 483.601 318.753 482.193C315.149 481.067 312.22 480.053 308.785 481.912C308.616 481.855 308.616 481.968 308.616 482.081Z" fill="black"/>
<path d="M474.034 39.3335C476.175 41.5863 478.315 43.8392 480.962 45.4725C485.073 48.1197 493.578 51.33 490.706 57.9196C490.424 58.5392 491.381 59.1587 491.776 58.6518C493.691 56.6242 494.198 54.315 492.452 52.0059C491.494 50.7105 489.804 49.8093 488.622 48.6265C487.045 47.0495 485.918 45.4725 484.848 43.5012C483.215 40.4035 480.906 37.9817 478.427 35.5036C475.78 32.8565 471.387 36.5737 474.034 39.3335Z" fill="black"/>
<path d="M463.163 54.9343C464.909 57.2435 466.993 60.1159 469.583 61.4676C473.075 63.2699 483.833 65.1285 478.764 72.3377C478.595 72.6193 478.933 72.9572 479.214 72.7883C481.749 71.2676 481.918 68.7331 480.341 66.255C479.721 65.2975 478.764 64.5653 477.975 63.7768C476.229 62.0308 474.821 60.0596 473.357 58.032C471.667 55.5538 469.471 53.3573 467.331 51.217C464.852 48.7389 461.023 52.1182 463.163 54.9343Z" fill="black"/>
<path d="M451.787 66.9878C453.927 70.0292 456.912 72.2258 459.841 74.366C463.051 76.7879 469.754 79.3223 466.881 84.335C466.656 84.6729 467.219 85.1235 467.501 84.7292C469.697 81.5189 468.965 79.7729 466.994 76.5625C463.896 71.5499 460.235 66.1993 455.054 63.1579C452.519 61.7499 450.154 64.6786 451.787 66.9878Z" fill="black"/>
<path d="M441.702 82.5907C444.18 84.6183 446.884 86.5332 449.756 88.0539C452.178 89.3493 460.682 91.3205 457.359 95.8826C457.19 96.1642 457.585 96.4459 457.754 96.2769C459.669 94.2493 458.824 92.5034 457.247 90.4758C453.473 85.6884 449.869 81.4079 444.912 77.9159C441.815 75.6068 438.886 80.3378 441.702 82.5907Z" fill="black"/>
<path d="M427.453 95.3776C430.044 97.7431 432.916 99.8271 435.901 101.686C439.562 103.995 446.49 106.867 445.532 112.218C445.476 112.612 446.039 112.612 446.095 112.33C449.587 103.094 437.253 95.2649 430.551 91.7167C428.467 90.5339 425.313 93.35 427.453 95.3776Z" fill="black"/>
<path d="M489.072 103.146C486.537 110.749 483.327 118.803 478.878 125.506C475.273 131.025 468.965 133.954 466.205 139.868C466.093 140.093 466.487 140.262 466.599 140.037C471.274 132.208 481.3 132.996 485.355 124.999C488.678 118.409 489.016 110.411 489.297 103.146C489.297 103.033 489.072 103.033 489.072 103.146Z" fill="black"/>
<path d="M358.066 481.18C363.361 493.233 383.693 498.358 395.746 497.006C402.335 496.274 406.391 491.994 410.446 487.15C415.627 480.842 419.851 470.648 427.455 466.987C439.508 461.017 436.016 483.208 435.002 489.29C433.425 498.64 431.735 508.102 426.328 516.1C416.022 531.25 398.449 539.924 389.832 556.426C381.778 571.914 384.538 589.656 386.96 606.158C387.072 606.947 388.311 606.834 388.311 606.045C387.241 588.867 386.791 569.718 396.872 554.905C407.517 539.191 426.047 530.011 434.214 512.382C437.537 505.342 438.663 497.232 439.846 489.516C440.916 482.588 442.38 473.577 439.508 466.874C437.255 461.58 431.904 460.172 426.779 462.031C420.077 464.452 416.078 470.929 412.248 476.562C409.207 480.955 405.996 485.742 401.885 489.178C397.604 492.782 392.254 492.388 387.016 491.543C376.54 489.854 368.768 483.771 359.306 479.716C358.461 479.321 357.729 480.391 358.066 481.18Z" fill="black"/>
<path d="M279.834 348.545C289.803 347.362 293.182 357.5 290.816 365.497C289.239 370.792 286.592 375.804 285.015 381.211C281.974 391.462 281.354 402.332 283.1 412.864C284.621 422.27 288.113 431.507 296.561 436.688C304.728 441.701 315.147 442.658 324.441 440.8C327.257 440.236 326.243 436.294 323.596 436.576C311.261 437.871 297.237 436.35 291.042 423.959C285.522 413.033 285.747 398.615 288.226 386.9C290.253 377.212 296.449 367.638 294.646 357.5C293.52 350.966 286.649 344.433 279.89 348.376C279.721 348.432 279.777 348.601 279.834 348.545Z" fill="black"/>
<path d="M292.173 350.174C271.784 340.261 251.959 353.665 243.173 372.477C233.147 394.104 235.062 418.773 236.189 441.865C237.484 467.942 238.16 495.089 221.601 517.055C205.099 538.964 178.628 551.355 163.984 575.01C150.636 596.469 149.622 624.517 156.268 648.397C163.196 673.348 181.331 690.019 202.677 703.48C226.727 718.631 253.705 729.163 281.753 734.232C304.62 738.4 332.161 741.047 352.775 727.755C363.87 720.602 370.009 709.507 375.416 697.792C382.062 683.373 387.92 668.392 390.736 652.734C395.974 623.053 382.682 591.85 392.369 563.014C392.932 561.437 390.623 560.817 390.004 562.225C381.217 581.374 384.484 601.087 386.117 621.307C388.258 647.89 381.048 672.109 369.897 695.989C363.927 708.943 356.717 720.433 343.144 726.347C330.978 731.641 317.236 732.317 304.169 731.416C278.036 729.613 252.128 722.517 228.36 711.365C204.93 700.326 178.403 684.725 165.786 661.295C153.565 638.71 152.438 609.648 162.914 586.218C173.784 561.943 197.496 548.595 215.631 530.46C229.374 516.717 237.709 500.722 240.244 481.403C243.173 459.1 239.455 436.571 239.737 414.211C240.075 386.952 253.479 335.699 291.609 351.3C292.285 351.638 292.848 350.511 292.173 350.174Z" fill="black"/>
<path d="M260.965 352.881C269.582 350.009 285.578 343.701 290.196 356.092C291.773 360.372 289.577 367.75 288.394 371.975C286.929 377.269 285.127 382.225 284.113 387.632C283.888 388.646 285.296 389.603 285.916 388.533C289.915 381.268 293.801 373.214 296.729 365.441C298.644 360.485 298.081 354.965 294.533 350.854C285.69 340.885 270.089 346.573 260.909 352.375C260.571 352.487 260.684 352.938 260.965 352.881Z" fill="black"/>
<path d="M319.824 456.68C313.967 455.779 308.447 454.99 302.872 452.681C298.422 450.823 294.142 447.331 289.58 445.923C285.919 444.853 282.032 444.909 279.104 447.612C274.711 451.667 276.288 457.525 276.907 462.65C278.372 474.703 276.963 485.348 273.64 497.006C273.19 498.471 275.33 499.597 276.119 498.246C279.047 493.177 281.244 487.939 282.258 482.081C283.497 474.985 281.3 468.395 282.032 461.58C280.793 458.764 281.751 456.455 284.792 454.765C286.932 449.471 290.086 449.246 294.254 454.089C296.563 455.272 298.873 456.567 301.407 457.3C307.434 459.046 313.967 459.046 319.881 457.187C320.219 457.187 320.219 456.736 319.824 456.68Z" fill="black"/>
<path d="M280.06 480.899C269.19 510.13 239.565 526.914 230.046 557.159C224.132 576.027 226.329 605.032 246.774 614.438C248.294 615.17 249.365 612.974 248.463 611.847C240.184 601.766 233.482 592.022 232.862 578.449C232.186 563.692 238.213 549.556 246.323 537.615C258.263 519.93 281.13 504.385 280.679 480.956C280.623 480.674 280.173 480.561 280.06 480.899Z" fill="black"/>
<path d="M416.809 476.056C418.724 478.309 419.963 480.9 420.526 483.716C420.977 486.757 420.583 489.63 419.456 492.446C417.992 496.276 415.176 499.542 412.697 502.696C408.473 508.16 404.08 513.341 401.152 519.649C400.814 520.438 401.996 520.832 402.447 520.269C409.431 511.708 421.709 501.119 423.511 489.517C424.243 484.955 423.061 474.648 416.584 474.592C415.908 474.592 415.626 475.211 415.795 475.718C415.851 475.775 415.852 475.887 415.908 475.944C416.02 476.282 416.471 476.282 416.753 476.113C416.696 476.169 416.753 476.113 416.809 476.056Z" fill="black"/>
<path d="M416.531 499.763C398.902 518.293 378.401 539.245 370.854 564.364C363.926 587.4 367.587 613.927 365.954 637.752C365.841 639.779 368.995 640.455 369.502 638.371C375.303 615.673 367.7 591.624 373.163 568.701C379.584 542.005 401.662 521.954 417.094 500.214C417.32 499.876 416.813 499.482 416.531 499.763Z" fill="black"/>
<path d="M307.43 630.489C316.329 632.742 323.595 636.628 329.565 643.837C334.803 650.201 337.506 657.861 342.068 664.563C346.912 671.66 354.178 677.348 362.457 672.223C363.133 671.773 362.851 670.59 361.95 670.815C345.504 674.532 340.266 647.216 330.973 637.698C324.609 631.108 316.611 627.053 307.487 629.531C307.036 629.644 306.867 630.376 307.43 630.489Z" fill="black"/>
<path d="M303.718 618.21C303.324 617.929 303.099 617.366 303.268 616.859L480.569 81.5764C480.738 80.9568 481.414 80.6189 482.09 80.8442C482.709 81.0132 483.047 81.689 482.822 82.3649L305.464 617.591C305.295 618.21 304.62 618.548 303.944 618.323C303.887 618.267 303.775 618.267 303.718 618.21Z" fill="black"/>
<path d="M299.269 615.113C298.875 614.831 298.649 614.268 298.818 613.761L474.148 84.3928C474.317 83.7732 474.993 83.4353 475.669 83.6606C476.288 83.8295 476.626 84.5054 476.401 85.1813L301.071 614.55C300.902 615.169 300.226 615.507 299.55 615.282C299.494 615.226 299.381 615.113 299.269 615.113Z" fill="black"/>
<path d="M294.816 612.018C294.422 611.736 294.196 611.173 294.365 610.666L468.005 86.3666C468.174 85.7471 468.85 85.4092 469.526 85.6345C470.146 85.8035 470.484 86.4793 470.258 87.1552L296.618 611.455C296.449 612.074 295.773 612.412 295.097 612.187C295.041 612.131 294.929 612.018 294.816 612.018Z" fill="black"/>
<path d="M290.423 608.861C290.029 608.579 289.803 608.016 289.972 607.509L461.641 89.0107C461.81 88.3912 462.486 88.0532 463.162 88.2785C463.781 88.4475 464.119 89.1233 463.894 89.7992L292.225 608.298C292.056 608.917 291.38 609.255 290.704 609.03C290.592 609.03 290.535 608.974 290.423 608.861Z" fill="black"/>
<path d="M286.029 605.822C285.635 605.541 285.409 604.977 285.578 604.47L453.924 96.0537C454.093 95.4341 454.769 95.0962 455.445 95.3215C456.065 95.4904 456.402 96.1663 456.177 96.8421L287.831 605.259C287.662 605.879 286.986 606.216 286.311 605.991C286.198 605.879 286.085 605.879 286.029 605.822Z" fill="black"/>
<path d="M281.585 602.722C281.191 602.441 280.965 601.877 281.134 601.371L440.187 121.058C440.356 120.439 441.032 120.101 441.708 120.326C442.327 120.495 442.665 121.171 442.44 121.847L283.387 602.159C283.218 602.779 282.542 603.117 281.866 602.891C281.754 602.779 281.641 602.779 281.585 602.722Z" fill="black"/>
<path d="M275.218 600.527C285.187 608.243 296.508 614.044 307.153 620.859C309.18 622.098 311.208 619.057 309.18 617.818C298.423 611.116 287.553 604.075 275.444 600.189C275.162 600.02 274.993 600.414 275.218 600.527Z" fill="black"/>
<path d="M273.019 599.345C273.075 599.289 273.019 599.233 273.075 599.176C273.075 599.176 273.075 599.064 273.019 599.12C272.962 599.064 272.85 599.064 272.85 599.064C272.737 599.064 272.568 599.12 272.681 599.233C273.413 602.894 281.073 605.597 283.889 607.287C289.577 610.61 295.322 613.538 301.687 615.172C302.137 615.284 302.419 614.665 302.024 614.496C296.674 611.624 291.83 608.019 286.761 604.752C284.508 603.288 282.199 601.88 279.721 600.753C280.059 600.866 272.624 598.501 273.019 599.345Z" fill="black"/>
<path d="M271.162 599.625C266.374 606.44 263.051 614.832 259.334 622.266C259.053 622.886 258.996 623.73 259.728 624.125C272.063 631.052 284.904 638.712 298.253 643.387C299.492 643.837 300.505 641.922 299.266 641.246C286.819 634.319 273.527 628.912 261.136 621.928C261.305 622.548 261.362 623.167 261.531 623.787C265.699 616.465 270.824 608.861 273.809 600.92C274.428 599.287 272.119 598.329 271.162 599.625Z" fill="black"/>
<path d="M309.069 618.603C305.971 620.687 305.803 624.686 304.62 628.009C302.93 632.965 300.79 637.696 298.875 642.54C299.326 642.315 299.776 642.089 300.17 641.921C299.494 641.808 298.819 641.583 298.199 641.301C297.636 641.076 297.185 641.864 297.58 642.258C298.368 643.16 298.255 643.047 299.326 643.779C299.72 644.061 300.452 644.004 300.734 643.498C303.043 639.048 304.958 634.43 306.816 629.755C308.224 626.319 310.871 622.546 309.463 618.772C309.351 618.547 309.182 618.491 309.069 618.603Z" fill="black"/>
<path d="M305.46 630.434C305.234 630.434 304.897 630.434 304.671 630.434C304.615 630.828 304.615 631.166 304.615 631.617C307.656 631.391 309.853 630.096 313.12 630.884C315.823 631.56 318.357 632.856 321.061 633.644C321.68 633.813 322.413 632.968 321.849 632.405C318.977 629.871 315.654 628.125 311.824 627.787C309.064 627.505 305.235 627.956 303.995 630.772C303.714 631.391 304.671 631.786 305.066 631.279C305.291 631.053 305.516 630.828 305.685 630.546C305.685 630.546 305.572 630.434 305.46 630.434Z" fill="black"/>
<path d="M369.221 632.123C364.997 638.712 364.546 645.133 364.828 652.737C364.94 656.454 365.109 660.453 363.926 664.001C361.617 671.041 355.703 670.309 349.959 667.831C349.452 667.662 349.001 668.338 349.395 668.732C352.324 671.548 356.492 673.012 360.603 672.956C364.659 672.843 366.743 669.746 368.151 666.198C369.953 661.466 369.671 656.341 369.39 651.329C368.826 644.908 368.77 638.543 369.221 632.123Z" fill="black"/>
<path d="M239.456 606.1C241.315 615.731 254.043 619.111 262.379 620.35C263.731 620.575 263.9 618.604 262.773 618.153C255.283 615.168 245.764 611.62 239.907 605.875C239.738 605.706 239.4 605.819 239.456 606.1Z" fill="black"/>
<path d="M302.534 490.075C301.125 492.61 300.055 495.257 298.985 498.016C298.704 498.749 299.211 499.368 299.83 499.65C314.924 506.296 329.962 512.885 345.113 519.362C345.507 519.531 346.07 519.306 346.296 518.968C347.535 516.828 348.83 514.631 349.844 512.379C350.238 511.421 348.83 510.802 348.267 511.59C346.971 513.449 346.352 516.208 343.986 516.546C342.804 516.715 339.593 514.519 338.58 514.068C334.581 512.322 330.638 510.52 326.696 508.718C318.078 504.831 309.349 501.058 300.731 497.172C301.013 497.679 301.294 498.298 301.576 498.805C302.196 495.933 302.815 493.173 303.04 490.244C303.04 490.019 302.703 489.906 302.534 490.075Z" fill="black"/>
<path d="M288.452 525.566C286.086 529.283 284.678 533.507 283.157 537.619C282.932 538.294 283.383 538.97 284.002 539.252C297.013 544.603 309.91 550.404 322.47 556.768C325.286 558.232 329.06 561.33 332.495 560.373C335.48 559.528 336.719 556.486 336.945 553.67C337.057 552.882 335.875 552.713 335.593 553.445C335.142 554.684 334.692 555.811 334.185 556.993C331.819 558.007 329.623 557.838 327.764 556.43C325.849 555.754 323.878 554.459 322.076 553.558C318.471 551.755 314.81 550.009 311.149 548.263C302.476 544.208 293.69 540.378 284.734 536.83C285.016 537.337 285.241 537.9 285.579 538.463C286.931 534.296 288.452 530.184 288.902 525.791C288.902 525.453 288.564 525.34 288.452 525.566Z" fill="black"/>
<path d="M274.71 562.395C271.499 565.606 270.317 569.154 270.091 573.66C270.091 574.336 270.429 574.786 271.049 575.068C283.045 580.418 295.493 584.755 307.827 589.43C310.812 590.613 313.797 591.683 316.782 592.866C318.247 593.429 321.063 595.118 322.752 594.668C325.568 593.879 325.906 589.148 326.695 586.895C327.089 585.938 325.625 585.487 325.174 586.389C324.555 588.022 323.766 589.599 322.921 591.232C321.006 591.57 319.204 591.232 317.571 590.275C314.867 589.486 312.22 588.191 309.686 587.121C304.391 584.98 299.153 582.897 293.803 580.813C288.509 578.785 283.214 576.645 277.92 574.617C275.048 573.547 273.133 573.66 272.964 570.449C272.851 568.084 274.316 564.93 275.217 562.79C275.329 562.452 274.935 562.17 274.71 562.395Z" fill="black"/>
<path d="M328.5 653.242C321.572 655.214 314.926 658.368 308.393 661.184C307.999 661.353 307.717 661.86 307.83 662.31C311.322 676.053 315.827 689.345 321.685 702.299C322.98 705.171 324.445 711.817 328.5 711.592C330.865 711.479 333.625 709.846 335.878 709.057C339.989 707.649 344.213 706.354 348.156 704.551C349.395 703.988 348.719 701.961 347.368 702.299C344.439 702.974 341.566 704.045 338.75 705.058C334.751 706.466 329.626 709.789 326.472 705.509C324.613 703.087 323.543 699.201 322.304 696.385C320.84 693.006 319.488 689.626 318.193 686.191C315.658 679.714 312.335 672.561 311.096 665.689C310.533 662.535 310.533 662.873 313.293 661.24C314.757 660.339 316.616 659.719 318.136 658.987C321.741 657.297 325.289 655.664 328.669 653.524C328.838 653.468 328.725 653.13 328.5 653.242Z" fill="black"/>
<path d="M316.503 658.705C318.755 658.029 320.896 657.128 323.148 656.34C324.05 656.002 326.302 654.988 327.316 655.101C328.893 655.326 328.274 655.044 329.062 656.509C330.02 658.142 330.245 660.845 330.977 662.704C331.878 665.182 333.061 667.604 334.131 670.026C338.975 681.065 342.298 692.498 346.24 703.875C346.916 705.903 350.183 705.34 349.62 703.199C347.254 694.864 344.551 686.528 341.397 678.418C338.074 670.026 333.343 662.141 330.865 653.467C330.696 652.848 330.02 652.397 329.344 652.735C325.063 654.763 320.558 655.889 316.615 658.48C316.333 658.536 316.39 658.705 316.503 658.705Z" fill="black"/>
<path d="M416.923 178.335C417.711 183.404 425.202 184.023 429.201 185.657C436.016 188.529 442.493 192.077 449.421 194.612C451.899 195.513 453.814 191.683 451.505 190.388C441.141 184.643 430.046 179.405 418.5 176.42C415.684 175.631 414.332 179.799 417.092 180.757C428.075 184.643 438.663 188.698 448.914 194.33C449.646 192.922 450.265 191.514 450.998 190.106C440.24 186.22 429.201 177.772 417.373 177.884C416.979 177.941 416.81 178.11 416.923 178.335Z" fill="black"/>
<path d="M427.455 139.532C436.241 148.543 449.252 149.951 460.066 155.583C460.91 154.288 461.755 152.993 462.656 151.641C451.054 146.009 439.001 140.602 426.667 136.828C424.358 136.096 422.33 139.701 424.752 140.883C425.146 141.052 425.54 141.221 425.935 141.503C427.23 142.122 428.469 141.334 428.356 139.87C428.356 139.419 428.3 139.025 428.244 138.518C427.286 139.363 426.273 140.264 425.315 141.109C437.086 145.671 448.745 150.008 460.178 155.471C462.825 156.766 465.472 152.993 462.769 151.528C451.843 145.783 439.677 142.404 427.962 138.912C427.512 139.025 427.286 139.363 427.455 139.532Z" fill="black"/>
<path d="M401.718 217.424C405.83 221.648 411.575 223.563 416.869 225.816C423.289 228.519 429.823 231.11 436.3 233.645C436.807 232.124 437.257 230.659 437.764 229.139C431.287 226.717 424.867 224.351 418.277 222.155C413.321 220.465 406.731 216.917 401.493 218.212C400.592 218.438 400.085 219.62 400.761 220.296C404.478 224.239 411.744 224.971 416.813 226.661C423.346 228.801 429.879 231.166 436.3 233.645C439.172 234.715 440.58 230.265 437.764 229.139C431.569 226.773 425.373 224.295 419.234 221.761C413.715 219.508 408.195 216.579 402.112 216.466C401.775 216.466 401.38 217.086 401.718 217.424Z" fill="black"/>
<path d="M388.258 258.706C392.932 262.48 398.846 264.338 404.366 266.366C410.561 268.619 416.757 270.759 422.952 272.899C425.824 273.857 427.232 269.52 424.416 268.393C418.221 266.028 412.082 263.719 405.83 261.522C400.085 259.495 394.509 257.073 388.314 257.523C387.582 257.58 387.131 258.481 387.864 258.988C392.82 262.705 398.677 264.057 404.422 266.084C410.674 268.281 416.813 270.59 423.008 272.955C423.515 271.435 423.966 269.97 424.473 268.45C418.277 266.309 412.082 264.169 405.83 262.085C400.254 260.227 394.453 258.03 388.483 258.143C388.145 258.143 388.032 258.481 388.258 258.706Z" fill="black"/>
<path d="M377.218 298.695C376.655 298.469 376.091 298.357 375.528 298.131C375.021 297.962 374.571 298.526 374.796 298.976C376.655 303.651 383.808 304.834 388.088 306.298C395.354 308.833 402.675 311.085 410.054 313.395C410.56 311.874 411.011 310.41 411.518 308.889C405.21 307.087 398.845 305.228 392.537 303.426C387.131 301.849 381.498 299.258 376.091 298.244C375.134 298.075 374.008 298.976 373.726 299.821C373.67 299.99 373.613 300.159 373.613 300.272C373.163 301.849 374.458 303.031 375.979 302.862C377.894 302.637 381.273 304.89 383.244 305.51C386.229 306.467 389.214 307.312 392.2 308.157C398.17 309.846 404.14 311.649 410.11 313.338C412.982 314.183 414.503 309.734 411.574 308.833C405.604 306.918 399.578 305.059 393.551 303.2C390.848 302.412 388.201 301.567 385.497 300.891C383.301 300.272 379.696 298.695 377.331 299.033C377.387 298.976 377.443 298.695 377.218 298.695Z" fill="black"/>
<path d="M361.39 341.669C360.883 341.726 360.377 341.669 359.87 341.726C359.194 341.726 358.687 342.683 359.419 343.077C370.12 348.822 382.342 351.582 394.057 354.849C396.986 355.637 398.394 351.413 395.521 350.343C384.482 346.4 372.936 342.739 361.39 340.543C358.631 340.036 357.166 344.091 360.039 344.711C360.32 344.767 360.602 344.823 360.883 344.88C361.841 345.049 362.911 344.542 362.967 343.472C362.967 343.246 363.024 342.965 362.967 342.683C362.01 343.303 361.052 344.035 360.095 344.654C371.303 348.428 382.962 350.85 394.17 354.736C394.677 353.215 395.127 351.751 395.634 350.23C383.919 346.964 372.148 342.739 360.039 341.557C360.151 342.007 360.32 342.402 360.489 342.908C360.883 342.514 361.278 342.233 361.672 341.838C361.616 341.895 361.503 341.669 361.39 341.669Z" fill="black"/>
<path d="M349.558 376.592C353.613 380.196 358.964 380.816 364.089 381.886C371.129 383.294 377.437 385.772 383.689 389.433C384.309 388.138 384.928 386.842 385.604 385.491C374.002 380.985 361.836 377.831 349.783 374.902C346.855 374.226 345.334 378.676 348.319 379.408C360.485 382.337 372.312 386.166 384.252 389.658C386.505 390.334 388.477 386.899 386.167 385.716C374.847 380.027 362.456 377.437 349.896 376.029C349.614 375.972 349.389 376.423 349.558 376.592Z" fill="black"/>
<path d="M337.848 410.153L337.904 410.097C338.017 409.984 337.96 409.815 337.848 409.703C337.791 409.646 337.792 409.646 337.735 409.59C337.397 409.365 337.003 409.646 337.003 409.984C336.721 413.758 346.859 416.574 349.506 417.419C357.729 420.235 366.009 422.093 373.274 427.219C374.006 425.811 374.626 424.403 375.358 422.995C367.473 421.305 360.095 418.433 352.998 414.603C348.38 412.125 342.804 407.112 337.228 408.52C337.96 409.027 338.749 409.477 339.481 409.984C339.312 409.477 339.143 409.083 338.636 408.802C336.327 407.281 334.356 411.392 337.059 412.181C343.536 414.152 349 417.926 355.139 420.911C361.165 423.783 367.417 426.092 373.95 427.444C376.485 427.951 378.287 424.797 376.034 423.22C369.275 418.489 361.616 416.123 353.843 413.983C351.196 413.476 338.749 408.802 337.848 410.153Z" fill="black"/>
<path d="M324.159 446.821L324.215 446.765C324.328 446.652 324.384 446.483 324.215 446.314C324.159 446.258 324.159 446.258 324.102 446.202C323.821 445.92 323.37 446.033 323.201 446.427C323.145 446.596 323.032 446.709 323.032 446.821C322.92 447.159 323.032 447.497 323.258 447.722C327.031 452.51 335.029 453.073 340.548 454.65C347.927 456.847 355.248 459.437 362.401 462.422C362.683 460.902 362.964 459.381 363.246 457.86C357.163 456.847 351.306 453.805 345.561 451.552C339.535 449.243 333.508 446.709 327.482 444.512C324.666 443.498 323.314 447.779 326.017 448.905C332.607 451.665 339.366 454.143 346.012 456.734C351.587 458.93 357.107 461.521 363.021 462.479C365.837 462.929 366.175 458.874 363.866 457.917C357.332 455.213 350.743 452.791 343.871 450.876C337.451 449.074 330.185 448.793 324.046 446.821C323.99 446.878 324.102 446.878 324.159 446.821Z" fill="black"/>
<path d="M318.979 458.085C316.669 457.466 314.135 457.747 311.769 457.409C308.841 457.072 306.025 456.283 303.377 455.213C302.645 454.931 302.307 455.945 302.814 456.339C306.757 459.493 314.698 462.253 319.035 458.367C319.204 458.311 319.148 458.142 318.979 458.085Z" fill="black"/>
<path d="M178.622 586.391C166.795 597.317 163.19 616.129 165.33 631.448C167.752 648.739 176.933 663.101 192.59 671.099C193.266 671.437 193.886 670.592 193.266 670.085C181.326 661.186 172.709 646.824 170.23 632.18C167.809 617.931 168.541 597.599 178.791 586.56C178.904 586.447 178.791 586.222 178.622 586.391Z" fill="black"/>
<path d="M368.938 626.997C366.742 633.587 365.728 639.219 365.447 646.147C365.165 652.962 366.573 662.255 362.18 667.887C361.617 668.563 362.518 669.464 363.306 669.126C370.009 666.028 369.84 658.875 369.952 652.455C370.178 643.669 370.459 635.615 369.22 626.941C369.164 626.885 368.995 626.941 368.938 626.997Z" fill="black"/>
<path d="M347.588 658.256C348.546 662.142 352.094 663.55 355.811 662.198C359.359 660.903 361.105 657.467 360.542 653.75C360.486 653.468 360.091 653.412 359.979 653.637C358.74 655.44 356.937 656.341 355.023 657.467C353.333 658.481 349.278 659.945 347.813 658.143C347.813 658.03 347.588 658.143 347.588 658.256Z" fill="black"/>
<path d="M409.549 511.255C399.749 518.914 389.273 528.376 383.641 539.753C383.528 540.091 383.866 540.542 384.204 540.204C393.271 531.361 401.832 521.336 409.661 511.367C409.774 511.255 409.661 511.142 409.549 511.255Z" fill="black"/>
<path d="M171.135 599.17C168.15 604.859 168.15 609.59 168.375 615.898C168.544 621.699 165.728 627.219 166.291 632.964C166.911 638.765 171.473 643.552 174.177 648.508C177.105 653.803 179.02 660.561 183.92 664.447C184.596 665.011 185.328 663.941 184.934 663.321C182.794 660.167 182.681 656.675 181.217 653.296C180.147 650.761 178.851 648.227 177.5 645.861C174.683 640.792 169.952 636.061 170.459 629.922C170.797 625.529 172.487 621.699 172.205 617.25C171.811 611.111 170.741 605.422 171.642 599.227C171.529 599.114 171.191 599.002 171.135 599.17Z" fill="black"/>
</svg>
