<svg width="1120" height="467" viewBox="0 0 1120 467" fill="none" xmlns="http://www.w3.org/2000/svg">
<path d="M891.633 200.036C891.634 229.285 887.759 244.747 879.859 247.201C865.232 251.746 839.912 212.432 810.594 166.909C777.635 115.731 740.277 57.7238 716.609 65.2648C695.187 72.0915 687.251 130.707 692.347 244.468C696.771 343.302 691.532 393.149 676.323 396.852C657.438 401.451 626.84 335.25 597.25 271.228C570.929 214.281 546.069 160.492 532.873 163.939C522.053 166.766 519.951 208.489 526.447 291.485C534.537 394.857 525.426 451.114 498.599 463.469C466.217 478.382 414.322 426.457 368.536 380.644C333.508 345.598 303.258 315.329 288.986 321.902C281.729 325.244 279.075 338.065 280.88 361.094L280.135 361.153C278.307 337.771 281.099 324.712 288.673 321.224C303.418 314.433 333.839 344.872 369.064 380.117C414.677 425.757 466.375 477.487 498.285 462.791C524.794 450.582 533.762 394.567 525.701 291.543C519.082 206.97 521.301 166.19 532.683 163.217C546.483 159.612 571.471 213.677 597.927 270.916C627.39 334.662 657.857 400.579 676.145 396.126C690.953 392.521 696.01 342.924 691.598 244.501C686.489 130.354 694.592 71.4959 716.38 64.5536C740.595 56.8374 776.499 112.589 811.222 166.504C839.162 209.888 865.55 250.864 879.636 246.487C888.19 243.83 891.814 224.709 890.693 188.058L891.44 188.035C891.569 192.265 891.633 196.267 891.633 200.036Z" fill="#FA347C"/>
<path d="M896.63 190.531C896.631 221.579 892.535 237.977 884.159 240.586C869.24 245.236 842.662 204.978 814.523 162.356C781.511 112.351 744.093 55.6737 719.924 63.4039C698.077 70.392 689.394 128.116 693.385 239.868C696.85 337.059 690.993 386.136 675.468 389.893C656.211 394.553 625.786 329.8 596.363 267.18C570.186 211.467 545.461 158.845 531.99 162.354C520.938 165.232 518.356 206.282 524.093 287.846C531.214 389.077 521.452 444.45 494.245 457.135C461.171 472.556 408.759 421.886 362.518 377.181C327.176 343.014 296.652 313.505 282.092 320.294C274.739 323.722 271.934 336.339 273.521 358.873L272.776 358.926C271.165 336.049 274.11 323.193 281.776 319.618C296.802 312.612 327.495 342.286 363.037 376.645C409.105 421.182 461.322 471.663 493.93 456.459C520.823 443.92 530.446 388.785 523.348 287.899C517.503 204.778 520.188 164.656 531.802 161.632C545.874 157.967 570.728 210.863 597.04 266.863C626.336 329.213 656.629 393.685 675.292 389.168C690.418 385.506 696.093 336.681 692.639 239.896C688.638 127.763 697.488 69.7974 719.697 62.6927C744.406 54.7892 781.988 111.718 815.147 161.944C843.126 204.326 869.552 244.355 883.936 239.873C892.664 237.153 896.546 218.315 895.795 182.304L896.542 182.288C896.602 185.141 896.63 187.891 896.63 190.531Z" fill="#A00604"/>
<path d="M901.816 180.901C901.817 213.871 897.485 231.265 888.603 234.042C873.386 238.799 846.758 199.477 818.569 157.845C785.489 108.993 747.995 53.6215 723.315 61.5479C701.036 68.7024 691.61 125.555 694.49 235.343C697.003 330.934 690.515 379.254 674.667 383.065C655.032 387.787 624.77 324.455 595.503 263.21C569.461 208.714 544.865 157.239 531.113 160.808C519.827 163.736 516.763 204.133 521.746 284.296C522.886 302.65 523.459 319.487 523.459 334.802C523.46 402.191 512.383 440.336 489.907 450.943C456.119 466.889 403.159 417.455 356.432 373.842C320.755 340.542 289.943 311.783 275.087 318.795C267.64 322.309 264.691 334.731 266.056 356.775L265.311 356.822C263.917 334.439 267.014 321.779 274.77 318.119C290.084 310.891 321.067 339.81 356.943 373.296C403.496 416.747 456.26 465.997 489.589 450.267C516.865 437.394 527.143 383.119 521.001 284.34C515.924 202.642 519.077 163.159 530.926 160.083C545.275 156.36 570 208.103 596.179 262.885C625.318 323.863 655.447 386.916 674.494 382.336C689.947 378.62 696.244 330.55 693.745 235.36C690.858 125.192 700.45 68.1027 723.088 60.8338C748.301 52.736 785.962 108.353 819.188 157.423C847.218 198.818 873.695 237.917 888.382 233.326C897.287 230.542 901.44 211.98 901.047 176.592L901.794 176.584C901.809 178.053 901.816 179.493 901.816 180.901Z" fill="#D81892"/>
<path d="M907.196 171.121C907.196 206.144 902.617 224.601 893.2 227.554C877.678 232.423 850.99 194.02 822.736 153.363C789.573 105.645 751.987 51.5574 726.782 59.684C704.062 67.0088 693.876 123.011 695.662 230.88C697.211 324.9 690.103 372.494 673.925 376.36C653.907 381.143 623.795 319.211 594.675 259.318C568.759 206.014 544.279 155.668 530.24 159.3C518.713 162.281 515.166 202.033 519.394 280.835C524.603 377.867 513.542 431.535 485.582 444.892C451.061 461.383 397.516 413.166 350.274 370.626C314.244 338.181 283.127 310.16 267.97 317.401C260.431 321.003 257.327 333.233 258.486 354.792L257.74 354.832C256.568 332.936 259.806 320.473 267.649 316.727C283.256 309.27 314.545 337.446 350.775 370.07C397.843 412.454 451.191 460.493 485.262 444.217C512.917 431.006 523.839 377.581 518.649 280.875C514.34 200.562 517.964 161.702 530.054 158.576C544.685 154.792 569.293 205.406 595.349 258.991C624.34 318.618 654.318 380.276 673.754 375.633C689.54 371.861 696.467 324.523 694.917 230.892C693.128 122.652 703.481 66.4131 726.555 58.9738C752.287 50.6769 790.041 105.005 823.352 152.938C851.445 193.364 877.981 231.546 892.978 226.842C902.044 224 906.451 205.771 906.451 171.124C906.451 171.057 906.451 170.992 906.451 170.924L907.198 170.924C907.196 170.988 907.196 171.058 907.196 171.121Z" fill="#A85A46"/>
<path d="M912.753 165.3C912.401 199.842 907.556 218.104 897.943 221.129C882.109 226.11 855.348 188.612 827.017 148.912C793.758 102.308 756.061 49.4868 730.323 57.8195C707.155 65.3196 696.237 120.46 696.901 226.48C697.482 318.968 689.752 365.855 673.237 369.774C652.827 374.618 622.854 314.062 593.869 255.499C568.067 203.368 543.696 154.128 529.363 157.823C517.59 160.856 513.558 199.992 517.034 277.454C521.297 372.444 509.596 425.272 481.266 438.97C445.992 456.026 391.83 409.009 344.043 367.526C307.639 335.923 276.198 308.63 260.734 316.107C253.104 319.797 249.856 331.834 250.801 352.922L250.055 352.955C249.095 331.542 252.481 319.269 260.409 315.436C276.316 307.745 307.929 335.188 344.534 366.964C392.146 408.295 446.109 455.14 480.94 438.299C508.972 424.746 520.535 372.144 516.286 277.488C512.744 198.531 516.839 160.279 529.176 157.101C544.096 153.256 568.597 202.759 594.537 255.169C623.393 313.47 653.231 373.755 673.063 369.049C689.189 365.222 696.742 318.616 696.153 226.485C695.478 120.133 706.576 64.725 730.092 57.1094C756.35 48.6083 794.216 101.667 827.624 148.479C855.793 187.952 882.4 225.236 897.717 220.417C906.983 217.502 911.657 199.472 912.005 165.293L912.753 165.3Z" fill="#F01C8C"/>
<path d="M918.465 159.713C917.745 193.664 912.635 211.67 902.839 214.762C886.689 219.86 859.846 183.252 831.427 144.496C798.055 98.9853 760.231 47.403 733.945 55.9489C710.322 63.6282 698.634 117.99 698.21 222.142C697.84 313.159 689.463 359.336 672.602 363.308C651.794 368.211 621.95 309.007 593.091 251.752C567.393 200.774 543.122 152.623 528.492 156.38C516.468 159.467 511.948 197.99 514.671 274.155C518 367.121 505.663 419.14 476.967 433.182C440.916 450.822 386.102 404.987 337.74 364.547C300.939 333.774 269.158 307.198 253.379 314.918C245.661 318.694 242.268 330.542 243.005 351.162L242.259 351.188C241.508 330.251 245.04 318.167 253.051 314.248C269.264 306.314 301.219 333.035 338.219 363.974C386.407 404.269 441.023 449.939 476.638 432.512C505.042 418.614 517.24 366.825 513.925 274.181C511.147 196.554 515.718 158.889 528.307 155.657C543.519 151.751 567.922 200.163 593.759 251.416C622.489 308.413 652.198 367.35 672.432 362.582C688.906 358.7 697.095 312.761 697.464 222.139C697.889 117.624 709.745 63.0306 733.715 55.2387C760.516 46.5264 798.51 98.3398 832.031 144.055C860.287 182.59 886.976 218.988 902.616 214.05C912.066 211.067 917.007 193.288 917.719 159.699L918.465 159.713Z" fill="#8436A6"/>
<path d="M924.334 154.156C923.246 187.527 917.867 205.286 907.888 208.446C891.414 213.663 864.476 177.932 835.957 140.102C802.459 95.6687 764.492 45.3066 737.644 54.0706C713.557 61.9333 701.109 115.51 699.586 217.858C698.251 307.428 689.235 352.926 672.022 356.953C650.809 361.915 621.084 304.041 592.338 248.073C566.735 198.228 542.553 151.145 527.619 154.965C515.337 158.107 510.323 196.038 512.298 270.932C512.484 278.011 512.578 284.863 512.578 291.463C512.579 369.669 499.471 414.245 472.674 427.512C435.825 445.755 380.324 401.087 331.356 361.676C294.139 331.722 261.997 305.854 245.899 313.825C238.095 317.688 234.556 329.351 235.09 349.511L234.343 349.531C233.812 329.061 237.477 317.161 245.568 313.155C262.094 304.973 294.408 330.98 331.825 361.094C380.618 400.364 435.922 444.875 472.343 426.843C501.113 412.599 513.939 361.609 511.551 270.952C509.542 194.614 514.588 157.528 527.433 154.242C542.946 150.275 567.26 197.614 593.002 247.732C621.618 303.445 651.208 361.055 671.851 356.225C688.682 352.288 697.51 307.025 698.839 217.846C700.368 115.139 712.984 61.3347 737.412 53.3595C764.768 44.4291 802.905 95.0183 836.554 139.651C864.91 177.264 891.692 212.792 907.662 207.733C917.302 204.681 922.51 187.147 923.586 154.131L924.334 154.156Z" fill="#9C1E0C"/>
<path d="M930.367 148.631C928.91 181.436 923.26 198.952 913.095 202.181C896.288 207.521 869.244 172.652 840.611 135.733C806.971 92.3579 768.842 43.196 741.421 52.1861C716.864 60.237 703.651 113.045 701.03 213.631C698.73 301.792 689.068 346.631 671.493 350.71C649.871 355.73 620.254 299.166 591.611 244.463C566.095 195.733 541.995 149.704 526.752 153.588C514.208 156.784 508.698 194.143 509.925 267.787C511.397 356.806 497.817 407.235 468.399 421.969C430.727 440.839 374.498 397.319 324.889 358.922C287.235 329.778 254.716 304.609 238.292 312.836C230.406 316.786 226.724 328.288 227.058 347.97L226.311 347.983C225.978 327.972 229.789 316.26 237.958 312.168C254.802 303.731 287.493 329.033 325.346 358.331C374.781 396.593 430.812 439.961 468.066 421.302C497.201 406.709 510.655 356.492 509.179 267.8C507.929 192.723 513.46 156.204 526.567 152.864C542.382 148.835 566.617 195.117 592.272 244.117C620.783 298.567 650.265 354.873 671.325 349.982C688.522 345.989 697.993 301.382 700.283 213.611C702.914 112.672 716.294 59.6374 741.187 51.4759C769.109 42.3225 807.409 91.7055 841.201 135.275C869.669 171.98 896.558 206.651 912.868 201.469C922.698 198.345 928.179 181.051 929.619 148.599L930.367 148.631Z" fill="#B60498"/>
<path d="M936.556 143.136C934.732 175.383 928.812 192.664 918.456 195.965C901.311 201.43 874.151 167.409 845.394 131.39C811.596 89.0562 773.289 41.0736 745.278 50.2968C720.241 58.5389 706.261 110.603 702.541 209.463C699.273 296.25 688.961 340.448 671.018 344.582C648.978 349.66 619.457 294.383 590.908 240.927C565.468 193.291 541.439 148.296 525.881 152.244C513.069 155.495 507.073 192.298 507.537 264.727C508.103 351.801 493.903 401.471 464.133 416.552C425.613 436.066 368.621 393.682 318.338 356.287C280.225 327.942 247.309 303.463 230.55 311.953C222.583 315.989 218.764 327.3 218.895 346.545L218.148 346.55C218.009 327.039 221.968 315.463 230.212 311.287C247.383 302.589 280.472 327.195 318.784 355.688C368.892 392.953 425.686 435.191 463.794 415.886C493.287 400.944 507.348 351.471 506.79 264.732C506.319 190.877 512.319 154.915 525.696 151.519C541.821 147.428 565.984 192.672 591.566 240.574C619.982 293.783 649.365 348.803 670.849 343.853C688.418 339.805 698.541 295.837 701.793 209.435C705.528 110.226 719.675 57.9394 745.044 49.5867C773.547 40.2021 812.027 88.3999 845.977 130.924C874.568 166.736 901.573 200.563 918.229 195.253C928.254 192.056 934.005 174.995 935.81 143.093L936.556 143.136Z" fill="#AA34C2"/>
<path d="M942.917 137.661C940.722 169.367 934.528 186.42 923.979 189.794C906.486 195.389 879.194 162.201 850.299 127.064C816.329 85.756 777.827 38.9368 749.216 48.398C723.695 56.8374 708.946 108.175 704.126 205.342C699.887 290.791 688.919 334.365 670.596 338.554C648.13 343.688 618.696 289.678 590.23 237.446C564.855 190.887 540.888 146.909 525.009 150.921C511.923 154.228 505.424 190.474 505.14 261.73C504.8 346.909 489.995 395.816 459.877 411.243C420.484 431.421 362.692 390.161 311.702 353.757C273.108 326.203 239.776 302.405 222.676 311.165C214.631 315.286 210.685 326.426 210.609 345.223L209.862 345.22C209.938 326.117 214.019 314.76 222.336 310.5C239.841 301.533 273.343 325.453 312.136 353.149C362.953 389.429 420.548 430.549 459.537 410.578C489.381 395.289 504.054 346.6 504.393 261.726C504.677 190.081 511.362 153.599 524.826 150.197C541.267 146.043 565.369 190.266 590.886 237.088C619.219 289.076 648.516 342.835 670.428 337.826C688.381 333.722 699.16 290.374 703.38 205.305C708.216 107.793 723.132 56.2357 748.981 47.6888C778.079 38.0682 816.754 85.0976 850.877 126.591C879.605 161.526 906.741 194.523 923.751 189.082C933.975 185.812 939.999 168.974 942.171 137.609L942.917 137.661Z" fill="#90321A"/>
<path d="M949.448 132.217C946.885 163.392 940.416 180.222 929.672 183.671C911.824 189.399 884.39 157.033 855.346 122.767C821.187 82.4662 782.47 36.7893 753.241 46.4956C727.223 55.1352 711.699 105.765 705.782 201.28C700.568 285.428 688.936 328.396 670.226 332.637C647.331 337.828 617.972 285.065 589.58 234.041C564.262 188.539 540.349 145.563 524.142 149.64C510.775 153.004 503.772 188.716 502.735 258.821C501.502 342.124 486.096 390.284 455.637 406.056C415.343 426.919 356.709 386.769 304.978 351.345C265.878 324.571 232.11 301.447 214.661 310.482C206.54 314.686 202.461 325.655 202.189 344.014L201.442 344.003C201.718 325.344 205.93 314.161 214.317 309.818C232.164 300.578 266.102 323.819 305.4 350.728C356.959 386.034 415.397 426.051 455.293 405.392C485.484 389.76 500.759 341.812 501.987 258.81C503.03 188.32 510.217 152.373 523.959 148.916C540.721 144.699 564.771 187.92 590.232 233.679C618.49 284.464 647.709 336.977 670.059 331.91C688.403 327.752 699.844 285.008 705.036 201.235C710.974 105.382 726.666 54.5346 753.005 45.7885C782.712 35.9228 821.603 81.8048 855.915 122.286C884.793 156.356 912.07 188.538 929.442 182.962C939.867 179.617 946.167 162.999 948.702 132.159L949.448 132.217Z" fill="#925E4E"/>
<path d="M956.142 126.79C953.212 157.443 946.466 174.058 935.523 177.582C917.314 183.445 889.727 151.889 860.522 118.481C826.157 79.1723 787.208 34.619 757.346 44.5783C730.826 53.422 714.523 103.365 707.506 197.261C701.311 280.145 689.012 322.524 669.904 326.82C646.573 332.065 617.281 280.53 588.953 230.693C563.682 186.232 539.812 144.238 523.273 148.38C509.617 151.802 502.108 186.996 500.316 255.976C498.201 337.433 482.202 384.863 451.406 400.976C410.185 422.544 350.669 383.492 298.161 349.037C258.535 323.036 224.312 300.58 206.507 309.896C198.316 314.182 194.108 324.98 193.642 342.907L192.895 342.888C193.369 324.665 197.707 313.657 206.161 309.234C224.355 299.714 258.747 322.282 298.57 348.412C350.907 382.755 410.228 421.678 451.06 400.314C481.593 384.338 497.461 337.118 499.569 255.956C501.371 186.594 509.065 151.169 523.092 147.656C540.181 143.375 564.187 185.609 589.603 230.323C617.797 279.925 646.95 331.214 669.742 326.091C688.485 321.877 700.596 279.718 706.762 197.206C713.804 102.976 730.273 52.8204 757.111 43.8701C787.444 33.7545 826.567 78.506 861.085 117.991C890.125 151.209 917.554 182.585 935.295 176.872C945.924 173.449 952.501 157.045 955.401 126.719L956.142 126.79Z" fill="#F04078"/>
<path d="M963.014 121.387C959.712 151.533 952.69 167.936 941.542 171.537C922.965 177.539 895.212 146.781 865.831 114.214C831.247 75.8823 792.049 32.4336 761.539 42.6519C734.508 51.7047 717.422 100.98 709.306 193.292C702.124 274.945 689.148 316.754 669.635 321.102C645.86 326.401 616.622 276.075 588.349 227.405C563.115 183.97 539.281 142.943 522.403 147.151C508.455 150.629 500.435 185.32 497.886 253.204C494.897 332.843 478.312 379.554 447.187 396.005C405.009 418.299 344.572 380.336 291.249 346.843C251.072 321.607 216.375 299.812 198.205 309.416C189.944 313.783 185.609 324.413 184.952 341.916L184.205 341.888C184.873 324.095 189.339 313.258 197.857 308.756C216.408 298.951 251.275 320.851 291.647 346.21C344.798 379.596 405.041 417.436 446.838 395.345C477.706 379.03 494.16 332.527 497.139 253.177C499.702 184.915 507.906 149.998 522.222 146.428C539.644 142.084 563.615 183.346 588.995 227.032C617.133 275.468 646.23 325.555 669.473 320.375C688.626 316.106 701.412 274.516 708.562 193.228C716.707 100.588 733.959 51.1032 761.302 41.9457C792.277 31.5721 831.649 75.212 866.386 113.715C895.601 146.096 923.195 176.681 941.313 170.828C952.15 167.327 959.006 151.128 962.271 121.306L963.014 121.387Z" fill="#AE727E"/>
<path d="M970.064 116.004C966.394 145.652 959.089 161.851 947.737 165.531C928.779 171.677 900.85 141.703 871.28 109.969C836.458 72.5981 796.991 30.2411 765.816 40.7253C738.266 49.9923 720.392 98.6184 711.174 189.383C703.002 269.84 689.343 311.092 669.414 315.494C645.19 320.846 616 271.709 587.77 224.191C562.565 181.762 538.757 141.686 521.534 145.961C507.285 149.497 498.751 183.698 495.443 250.516C491.589 328.363 474.428 374.364 442.98 391.147C399.816 414.18 338.416 377.299 284.244 344.759C243.493 320.28 208.3 299.141 189.757 309.036C181.429 313.48 176.97 323.946 176.124 341.033L175.378 340.996C176.237 323.625 180.826 312.956 189.405 308.377C208.321 298.282 243.682 319.523 284.628 344.118C338.631 376.556 399.838 413.321 442.628 390.486C473.826 373.838 490.858 328.04 494.697 250.478C498.023 183.287 506.743 148.861 521.355 145.235C539.116 140.826 563.062 181.134 588.413 223.809C616.507 271.099 645.556 319.999 669.252 314.765C688.826 310.442 702.296 269.404 710.431 189.309C719.681 98.222 737.72 49.3887 765.578 40.0191C797.209 29.3795 836.852 71.9239 871.827 109.46C901.23 141.016 929.001 170.82 947.506 164.822C958.554 161.241 965.691 145.243 969.322 115.913L970.064 116.004Z" fill="#C06872"/>
<path d="M977.295 110.637C973.252 139.796 965.667 155.8 954.107 159.559C934.76 165.85 906.641 136.649 876.87 105.733C841.794 69.3096 802.04 28.0253 770.186 38.7843C742.108 48.2675 723.442 96.2631 713.123 185.512C703.952 264.808 689.601 305.52 669.246 309.977C644.566 315.379 615.411 267.415 587.216 221.029C562.029 179.592 538.24 140.453 520.666 144.795C506.11 148.39 497.056 182.115 492.988 247.893C488.28 323.981 470.549 369.284 438.783 386.394C394.603 410.189 332.195 374.38 277.135 342.785C235.787 319.059 200.076 298.568 181.152 308.761C172.762 313.28 168.182 323.582 167.15 340.258L166.405 340.212C167.454 323.258 172.162 312.755 180.799 308.103C200.088 297.714 235.965 318.301 277.507 342.137C332.398 373.635 394.614 409.334 438.429 385.737C469.95 368.759 487.552 323.656 492.243 247.847C496.334 181.7 505.574 147.754 520.488 144.069C538.594 139.597 562.522 178.963 587.855 220.642C615.913 266.803 644.927 314.537 669.086 309.247C689.091 304.868 703.252 264.366 712.381 185.426C722.736 95.8597 741.567 47.6619 769.947 38.0772C802.251 27.1667 842.18 68.6313 877.408 105.214C907.013 135.957 934.975 164.995 953.875 158.848C965.139 155.186 972.557 139.382 976.556 110.533L977.295 110.637Z" fill="#F24AC4"/>
<path d="M984.704 105.283C980.29 133.968 972.421 149.779 960.647 153.618C940.905 160.059 912.583 131.62 882.599 101.511C847.254 66.0196 807.193 25.7921 774.64 36.833C746.026 46.5363 726.563 93.9183 715.14 181.687C704.965 259.856 689.913 300.047 669.123 304.556C643.98 310.009 614.852 263.198 586.684 217.928C561.507 177.466 537.726 139.248 519.795 143.656C504.926 147.311 495.347 180.574 490.513 245.341C484.963 319.697 466.671 364.315 434.593 381.742C389.364 406.315 325.908 371.571 269.921 340.917C227.949 317.937 191.703 298.091 172.39 308.583C163.939 313.175 159.24 323.316 158.026 339.587L157.281 339.531C158.516 322.987 163.341 312.649 172.033 307.927C191.705 297.24 228.118 317.177 270.281 340.262C326.1 370.824 389.366 405.464 434.237 381.086C466.075 363.789 484.239 319.368 489.768 245.286C494.629 180.153 504.393 146.673 519.617 142.93C538.073 138.393 561.994 176.835 587.319 217.533C615.35 262.583 644.338 309.168 668.965 303.825C689.409 299.391 704.272 259.407 714.4 181.589C725.864 93.511 745.49 45.9287 774.401 36.1248C807.395 24.9355 847.63 65.3373 883.129 100.983C912.947 130.925 941.111 159.205 960.417 152.907C971.896 149.162 979.6 133.547 983.968 105.168L984.704 105.283Z" fill="#F64284"/>
<path d="M992.304 99.936C987.516 128.154 979.362 143.779 967.372 147.702C947.223 154.295 918.686 126.608 888.473 97.2955C852.843 62.7244 812.457 23.5397 779.188 34.8675C750.029 44.7969 729.765 91.5833 717.237 177.904C706.049 254.979 690.287 294.663 669.051 299.227C643.44 304.729 614.329 259.054 586.176 214.883C561 175.38 537.218 138.069 518.925 142.543C503.735 146.26 493.627 179.072 488.026 242.856C481.644 315.51 462.798 359.452 430.413 377.192C384.103 402.559 319.555 368.875 262.604 339.158C219.987 316.92 183.181 297.714 163.469 308.511C154.96 313.172 150.146 323.154 148.752 339.027L148.008 338.963C149.425 322.821 154.365 312.647 163.111 307.857C183.173 296.868 220.142 316.159 262.949 338.497C319.734 368.127 384.095 401.712 430.055 376.538C462.205 358.927 480.924 315.179 487.283 242.792C492.915 178.649 503.208 145.621 518.749 141.819C537.561 137.217 561.482 174.748 586.807 214.482C614.823 258.438 643.792 303.892 668.894 298.498C689.79 294.008 705.361 254.527 716.498 177.798C729.07 91.174 749.498 44.1904 778.948 34.1624C812.65 22.6871 853.21 62.0402 888.994 96.7607C919.04 125.913 947.419 153.448 967.14 146.995C978.842 143.166 986.832 127.733 991.567 99.8145L992.304 99.936Z" fill="#FA2C9C"/>
<path d="M1000.09 94.596C994.929 122.361 986.486 137.806 974.277 141.813C953.713 148.562 924.949 121.616 894.496 93.087C858.56 59.4213 817.829 21.2644 783.827 32.8871C754.115 43.0436 733.044 89.2523 719.408 174.151C707.2 250.167 690.719 289.364 669.024 293.982C642.94 299.533 613.837 254.976 585.691 211.888C560.504 173.33 536.715 136.911 518.054 141.453C502.534 145.23 491.892 177.606 485.518 240.429C478.317 311.414 458.926 354.691 426.24 372.733C378.815 398.908 313.129 366.282 255.176 337.497C211.889 315.996 174.503 297.427 154.384 308.532C145.82 313.259 140.894 323.083 139.323 338.566L138.58 338.49C140.178 322.745 145.23 312.732 154.023 307.878C174.486 296.584 212.033 315.234 255.509 336.829C313.297 365.532 378.798 398.067 425.879 372.08C458.335 354.166 477.601 311.078 484.775 240.356C491.185 177.179 502.013 144.592 517.876 140.73C537.052 136.063 560.981 172.696 586.316 211.482C614.325 254.36 643.286 298.698 668.869 293.254C690.227 288.709 706.518 249.711 718.671 174.035C732.353 88.8379 753.587 42.438 783.585 32.1839C818.013 20.4158 858.918 58.735 895.007 92.5451C925.293 120.918 953.9 147.717 974.044 141.106C985.971 137.192 994.249 121.935 999.354 94.4635L1000.09 94.596Z" fill="#826246"/>
<path d="M1008.06 89.2665C1002.53 116.587 993.795 131.856 981.363 135.947C960.373 142.857 931.37 116.64 900.663 88.886C864.406 56.1147 823.311 18.9699 788.555 30.8953C758.279 41.2849 736.398 86.9318 721.654 170.445C708.416 245.434 691.207 284.157 669.043 288.828C642.481 294.426 613.374 250.974 585.228 208.951C560.023 171.324 536.217 135.783 517.181 140.393C501.326 144.232 490.144 176.186 482.993 238.078C474.982 307.42 455.056 350.041 422.073 368.374C373.5 395.374 306.634 363.801 247.638 335.944C203.653 315.176 165.667 297.239 145.131 308.655C136.514 313.444 131.477 323.114 129.733 338.216L128.991 338.13C130.765 322.772 135.926 312.917 144.768 308.002C165.64 296.4 203.787 314.413 247.958 335.268C306.791 363.048 373.474 394.534 421.712 367.721C454.468 349.514 474.271 307.079 482.252 237.992C489.442 175.752 500.81 143.589 517.007 139.667C536.55 134.933 560.497 170.685 585.85 208.535C613.859 250.351 642.823 293.592 668.892 288.097C690.723 283.496 707.742 244.969 720.921 170.314C735.715 86.5085 757.759 40.6733 788.315 30.1891C823.487 18.1203 864.756 55.4215 901.166 88.3313C931.707 115.937 960.554 142.01 981.131 135.237C993.284 131.236 1001.85 116.151 1007.33 89.1181L1008.06 89.2665Z" fill="#EC740C"/>
<path d="M1016.23 83.9448C1010.33 110.83 1001.3 125.929 988.644 130.108C967.219 137.181 937.963 111.685 906.988 84.6929C870.391 52.8011 828.911 16.6543 793.381 28.8925C762.534 39.5161 739.831 84.6192 723.977 166.78C709.7 240.775 691.752 279.041 669.11 283.768C642.064 289.412 612.946 247.045 584.787 206.074C559.557 169.362 535.725 134.685 516.307 139.363C500.108 143.265 488.379 174.807 480.449 235.793C471.64 303.527 451.183 345.502 417.91 364.116C368.153 391.952 300.059 361.43 239.981 334.502C195.276 314.464 156.667 297.158 135.704 308.885C127.037 313.733 121.894 323.247 119.978 337.974L119.237 337.877C121.186 322.901 126.453 313.204 135.339 308.232C156.63 296.322 195.398 313.699 240.288 333.819C300.205 360.676 368.116 391.116 417.546 363.464C450.599 344.974 470.933 303.18 479.708 235.697C487.683 174.368 499.597 142.619 516.131 138.636C536.049 133.838 560.022 168.72 585.403 205.65C613.423 246.42 642.398 288.579 668.958 283.036C691.273 278.378 709.03 240.304 723.244 166.638C739.154 84.1929 762.016 38.9045 793.137 28.1863C829.076 15.8077 870.729 52.1059 907.479 84.1302C938.29 110.978 967.39 136.338 988.41 129.399C1000.8 125.311 1009.66 110.389 1015.5 83.7855L1016.23 83.9448Z" fill="#A24C70"/>
<path d="M1024.61 78.6231C1018.32 105.083 1009 120.019 996.113 124.285C974.243 131.524 944.719 106.74 913.464 80.5006C876.511 49.4803 834.628 14.3206 798.306 26.8745C766.88 37.7361 743.355 82.3134 726.39 163.151C711.06 236.182 692.363 274.007 669.227 278.788C641.69 284.478 612.552 243.18 584.374 203.241C559.106 167.43 535.241 133.605 515.436 138.352C498.886 142.319 486.604 173.465 477.887 233.57C468.294 299.726 447.315 341.064 413.755 359.947C362.777 388.631 293.411 359.158 232.211 333.157C186.759 313.846 147.506 297.168 126.105 309.209C117.391 314.113 112.142 323.477 110.06 337.836L109.321 337.73C111.439 323.126 116.809 313.584 125.74 308.559C147.46 296.338 186.87 313.082 232.504 332.47C293.547 358.405 362.733 387.8 413.39 359.298C446.735 340.535 467.59 299.375 477.149 233.465C485.914 173.022 498.382 141.674 515.263 137.627C535.561 132.762 559.568 166.788 584.985 202.813C613.025 242.554 642.021 283.648 669.078 278.057C691.89 273.343 710.399 235.707 725.661 162.999C742.686 81.8821 766.37 37.1246 798.064 26.1693C834.787 13.4769 876.842 48.7811 913.947 79.9298C945.039 106.031 974.407 130.684 995.882 123.577C1008.5 119.399 1017.66 104.638 1023.88 78.4507L1024.61 78.6231Z" fill="#CC380A"/>
<path d="M1033.18 73.3029C1026.51 99.349 1016.9 114.126 1003.78 118.481C981.45 125.889 951.648 101.807 920.096 76.3119C882.768 46.1492 840.46 11.9616 803.324 24.8392C771.307 35.9429 746.954 80.0092 728.871 159.554C712.482 231.653 693.024 269.052 669.385 273.889C641.354 279.624 612.187 239.382 583.98 200.464C558.667 165.54 534.757 132.552 514.559 137.366C497.649 141.398 484.808 172.16 475.299 231.409C464.93 296.021 443.438 336.734 409.594 355.874C357.359 385.416 286.676 356.995 224.313 331.919C178.09 313.335 138.17 297.284 116.323 309.638C107.563 314.593 102.212 323.807 99.9656 337.806L99.2285 337.687C101.513 323.449 106.985 314.062 115.956 308.989C138.116 296.456 178.191 312.57 224.593 331.227C286.799 356.239 357.305 384.589 409.228 355.226C442.862 336.204 464.234 295.666 474.564 231.293C484.124 171.712 497.151 140.752 514.387 136.642C535.071 131.712 559.122 164.895 584.585 200.028C612.654 238.754 641.677 278.798 669.236 273.16C692.556 268.389 711.825 231.174 728.143 159.391C746.288 79.5729 770.8 35.3304 803.079 24.136C840.608 11.1219 883.087 45.447 920.566 75.7323C951.955 101.096 981.602 125.054 1003.54 117.774C1016.4 113.507 1025.86 98.8998 1032.45 73.1196L1033.18 73.3029Z" fill="#965ED0"/>
<path d="M1041.95 67.9912C1034.91 93.6309 1025 108.255 1011.64 112.697C988.846 120.278 958.753 96.8899 926.892 72.1297C889.171 42.8136 846.417 9.58716 808.445 22.7975C775.829 34.1452 750.64 77.7164 731.438 156.001C713.975 227.199 693.744 264.188 669.59 269.08C641.059 274.86 611.852 235.655 583.608 197.742C558.241 163.693 534.281 131.53 513.683 136.415C496.406 140.512 482.997 170.902 472.692 229.322C461.562 292.42 439.561 332.515 405.438 351.898C351.908 382.304 279.861 354.935 216.297 330.788C169.277 312.926 128.668 297.5 106.363 310.17C97.5576 315.171 92.1063 324.238 89.6999 337.888L88.9648 337.758C91.4131 323.876 96.9839 314.64 105.995 309.52C128.606 296.676 169.366 312.159 216.562 330.089C279.973 354.178 351.844 381.481 405.068 351.248C438.987 331.982 460.867 292.057 471.956 229.191C482.319 170.447 495.912 139.862 513.511 135.687C534.587 130.689 558.689 163.043 584.208 197.295C612.313 235.022 641.376 274.032 669.443 268.347C693.284 263.517 713.326 226.71 730.713 155.823C749.98 77.2722 775.326 33.5276 808.201 22.0903C846.556 8.74649 889.48 42.1055 927.351 71.5381C959.05 96.1728 988.991 119.443 1011.4 111.987C1024.51 107.629 1034.26 93.1728 1041.23 67.792L1041.95 67.9912Z" fill="#9E3668"/>
<path d="M1050.94 62.6592C1043.52 87.9065 1033.3 102.382 1019.7 106.916C996.433 114.673 966.032 91.9703 933.847 67.9342C895.715 39.4568 852.496 7.18048 813.667 20.7295C780.442 32.3232 754.411 75.4143 734.087 152.467C715.537 222.797 694.521 259.392 669.839 264.343C640.806 270.167 611.551 231.987 583.259 195.064C557.829 161.874 533.809 130.526 512.805 135.481C495.152 139.645 481.17 169.676 470.06 227.292C458.177 288.911 435.678 328.399 401.275 348.013C346.413 379.29 272.957 352.976 208.15 329.758C160.306 312.619 118.987 297.816 96.213 310.801C87.3643 315.845 81.8154 324.767 79.2497 338.072L78.5166 337.93C81.1262 324.397 86.7946 315.311 95.8435 310.151C118.916 296.997 160.385 311.852 208.402 329.055C273.059 352.217 346.341 378.471 400.905 347.363C435.106 327.863 457.487 288.541 469.326 227.149C480.497 169.215 494.663 138.993 512.633 134.754C534.108 129.688 558.27 161.223 583.851 194.61C612.004 231.351 641.114 269.343 669.692 263.611C694.067 258.721 714.894 222.304 733.365 152.277C753.756 74.9661 779.943 31.7057 813.421 20.0243C852.624 6.34582 896.013 38.7486 934.294 67.3365C966.318 91.2521 996.567 113.841 1019.47 106.207C1032.82 101.756 1042.88 87.4433 1050.22 62.449L1050.94 62.6592Z" fill="#BE8888"/>
<path d="M1060.13 57.3311C1052.33 82.1929 1041.81 96.5258 1027.97 101.15C1004.21 109.086 973.493 87.0605 940.971 63.7425C902.409 36.0918 858.702 4.75277 818.992 18.6474C785.145 30.4901 758.264 73.1191 736.814 148.973C717.163 218.463 695.351 254.677 670.129 259.687C640.587 265.555 611.276 228.383 582.931 192.435C557.428 160.093 533.34 129.544 511.926 134.569C493.888 138.802 479.325 168.486 467.404 225.317C454.782 285.494 431.786 324.386 397.106 344.216C340.869 376.371 265.959 351.112 199.866 328.828C151.176 312.411 109.125 298.232 85.8711 311.528C76.9805 316.612 71.336 325.389 68.6149 338.36L67.8838 338.207C70.6508 325.015 76.4128 316.076 85.5005 310.88C109.046 297.417 151.243 311.645 200.105 328.12C266.048 350.354 340.79 375.556 396.735 343.567C431.22 323.85 454.096 285.12 466.673 225.164C478.659 168.02 493.406 138.148 511.755 133.843C533.633 128.709 557.864 159.439 583.517 191.972C611.723 227.743 640.89 264.733 669.983 258.954C694.904 254.005 716.529 217.962 736.095 148.77C757.617 72.6659 784.653 29.8716 818.746 17.9422C858.821 3.92108 902.696 35.3796 941.406 63.1359C973.768 86.3394 1004.33 108.257 1027.73 100.441C1041.33 95.8992 1051.69 81.7238 1059.42 57.107L1060.13 57.3311Z" fill="#A25846"/>
<path d="M1069.55 51.9966C1061.37 76.483 1050.54 90.6793 1036.44 95.3945C1012.18 103.512 981.133 82.1563 948.258 59.5465C909.248 32.7155 865.033 2.30581 824.424 16.551C789.948 28.6438 762.213 70.8245 739.634 145.506C718.868 214.186 696.244 250.037 670.468 255.107C640.412 261.018 611.036 224.84 582.627 189.854C557.043 158.347 532.879 128.588 511.046 133.685C492.614 137.987 477.461 167.338 464.721 223.412C451.37 282.181 427.886 320.485 392.929 340.517C335.282 373.55 258.871 349.354 191.456 328.006C141.893 312.31 99.0887 298.755 75.3434 312.362C66.411 317.481 60.6719 326.116 57.7994 338.762L57.0713 338.597C59.9926 325.736 65.8483 316.942 74.9729 311.714C99.003 297.944 141.952 311.544 191.682 327.293C258.951 348.595 335.195 372.739 392.558 339.868C427.324 319.947 450.69 281.799 463.993 223.247C476.802 166.865 492.138 137.331 510.876 132.958C533.164 127.755 557.471 157.691 583.207 189.384C611.477 224.199 640.708 260.198 670.323 254.373C695.804 249.362 718.241 213.681 738.919 145.29C761.572 70.3643 789.46 28.0243 824.178 15.8458C865.145 1.47512 909.525 32.0003 948.682 58.9309C981.4 81.4332 1012.3 102.686 1036.21 94.6863C1050.06 90.0508 1060.74 76.0088 1068.84 51.7585L1069.55 51.9966Z" fill="#F65E0E"/>
<path d="M1079.18 46.6466C1070.61 70.7684 1059.48 84.8323 1045.13 89.6401C1020.36 97.943 988.959 77.2495 955.718 55.3389C916.241 29.3197 871.497 -0.171667 829.962 14.4311C794.846 26.7758 766.248 68.5253 742.536 142.064C720.64 209.964 697.191 245.466 670.845 250.598C640.272 256.554 610.821 221.357 582.341 187.318C556.667 156.634 532.418 127.653 510.162 132.82C491.327 137.193 475.576 166.22 462.011 221.559C447.941 278.955 423.973 316.684 388.739 336.904C329.639 370.819 251.682 347.688 182.904 327.279C132.441 312.306 88.8609 299.375 64.6126 313.29C55.6394 318.44 49.8076 326.936 46.7857 339.265L46.0596 339.086C49.1333 326.549 55.0796 317.899 64.2401 312.642C88.7652 298.568 132.489 311.541 183.116 326.563C251.751 346.929 329.544 370.012 388.366 336.257C423.415 316.144 447.266 278.569 461.285 221.383C474.924 165.744 490.857 136.536 509.992 132.094C532.696 126.822 557.088 155.974 582.913 186.839C611.255 220.712 640.562 255.738 670.702 249.866C696.756 244.79 720.022 209.454 741.825 141.836C765.615 68.0612 794.363 26.1553 829.715 13.7279C871.6 -0.996374 916.508 28.6035 956.129 54.7174C989.214 76.5234 1020.46 97.1202 1044.89 88.9329C1059.01 84.2018 1069.99 70.2883 1078.48 46.3965L1079.18 46.6466Z" fill="#CC1C3A"/>
<path d="M1089.04 41.2875C1080.09 65.0547 1068.64 78.9901 1054.03 83.8916C1028.74 92.3817 996.977 72.3426 963.354 51.1262C923.391 25.9098 878.095 -2.67216 835.611 12.2932C799.843 24.8929 770.373 66.225 745.521 138.654C722.481 205.801 698.193 240.968 671.268 246.163C640.174 252.164 610.642 217.931 582.081 184.826C556.31 154.952 531.967 126.736 509.28 131.976C490.034 136.422 473.677 165.14 459.276 219.769C444.498 275.825 420.05 312.989 384.536 333.382C357.519 348.896 324.126 354.406 282.447 350.228C246.071 346.582 207.895 335.995 174.213 326.654C122.825 312.404 78.4447 300.097 53.6795 314.319C44.6645 319.496 38.7421 327.856 35.5727 339.878L34.8506 339.687C38.0727 327.463 44.1107 318.953 53.309 313.671C78.3441 299.294 122.864 311.64 174.413 325.935C244.456 345.359 323.842 367.374 384.164 332.734C419.496 312.445 443.828 275.432 458.554 219.578C473.033 164.655 489.57 135.764 509.112 131.249C532.237 125.906 556.723 154.289 582.647 184.338C611.068 217.283 640.457 251.349 671.126 245.43C697.765 240.289 721.869 205.282 744.814 138.411C769.745 65.7529 799.363 24.2684 835.362 11.589C878.188 -3.49689 923.646 25.1867 963.751 50.4938C997.219 71.6125 1028.83 91.561 1053.79 83.1824C1068.17 78.3566 1079.47 64.5666 1088.34 41.0235L1089.04 41.2875Z" fill="#920C3A"/>
<path d="M1099.13 35.9162C1089.79 59.3378 1078.02 73.1506 1063.15 78.1457C1037.32 86.8261 1005.19 67.4345 971.167 46.9054C930.7 22.4817 884.833 -5.19886 841.373 10.136C804.94 22.9907 774.592 63.9215 748.597 135.268C724.395 201.693 699.253 236.542 671.733 241.805C640.115 247.852 610.49 214.571 581.841 182.385C555.96 153.311 531.516 125.848 508.393 131.162C488.725 135.683 471.752 164.102 456.506 218.042C435.049 293.97 394.639 336.005 332.969 346.549C279.633 355.669 218.93 339.978 165.373 326.136C130.891 317.223 98.3197 308.805 73.4071 308.77C45.9576 308.732 30.31 318.845 24.1625 340.595L23.4434 340.392C29.6954 318.27 45.5721 307.985 73.4091 308.024C98.4163 308.059 131.03 316.488 165.561 325.414C219.045 339.237 279.665 354.906 332.843 345.813C394.201 335.322 434.416 293.462 455.789 217.839C471.116 163.613 488.268 135.023 508.227 130.434C531.781 125.02 556.369 152.644 582.4 181.888C610.911 213.917 640.393 247.037 671.593 241.07C698.834 235.861 723.792 201.168 747.896 135.011C773.973 63.4404 804.468 22.3632 841.126 9.4298C884.917 -6.02256 930.945 21.7557 971.554 46.2639C1005.42 66.7014 1037.41 86.0064 1062.91 77.4366C1077.56 72.5162 1089.18 58.8437 1098.43 35.6393L1099.13 35.9162Z" fill="#86461E"/>
<path d="M1109.45 30.524C1099.72 53.6109 1087.63 67.3083 1072.49 72.398C1046.11 81.2706 1013.59 62.5214 979.16 42.6706C938.169 19.0348 891.707 -7.75236 847.248 7.95501C810.139 21.0667 778.906 61.612 751.761 131.907C726.379 197.637 700.367 232.181 672.238 237.512C640.091 243.607 610.367 211.262 581.621 179.982C555.624 151.695 531.069 124.974 507.506 130.365C487.407 134.962 469.811 163.094 453.712 216.368C431.082 291.257 389.53 333.016 326.679 344.032C272.322 353.559 210.727 338.769 156.383 325.72C121.392 317.318 88.341 309.381 62.9931 309.609C35.0565 309.86 19.0245 319.97 12.5413 341.426L11.8262 341.21C18.4179 319.395 34.6741 309.116 62.9861 308.862C88.4267 308.634 121.521 316.58 156.557 324.993C210.83 338.026 272.345 352.796 326.55 343.296C389.094 332.333 430.456 290.744 452.996 216.152C469.179 162.598 486.955 134.299 507.339 129.638C531.325 124.151 556.023 151.025 582.17 179.477C610.778 210.607 640.359 242.795 672.098 236.779C699.953 231.499 725.782 197.107 751.064 131.639C778.291 61.127 809.672 20.4392 846.998 7.25085C891.781 -8.57206 938.401 18.3077 979.533 42.0221C1013.81 61.7873 1046.19 80.4549 1072.25 71.6888C1087.17 66.6709 1099.11 53.1109 1108.76 30.2331L1109.45 30.524Z" fill="#D828BC"/>
<path d="M1120 25.1169C1109.88 47.8771 1097.47 61.461 1082.06 66.6453C1055.11 75.7131 1022.19 57.5994 987.337 38.4219C945.802 15.568 898.723 -10.3357 853.242 5.75216C815.447 19.1208 783.318 59.2936 755.02 128.564C728.441 193.626 701.544 227.881 672.792 233.287C640.112 239.43 610.278 208.009 581.427 177.623C555.304 150.111 530.631 124.124 506.619 129.591C486.08 134.267 467.85 162.123 450.888 214.753C427.078 288.632 384.365 330.131 320.311 341.623C264.91 351.561 202.399 337.664 147.247 325.403C111.733 317.508 78.1891 310.051 52.393 310.542C23.9574 311.081 7.53494 321.194 0.711153 342.366L-1.25677e-07 342.137C6.93534 320.618 23.579 310.342 52.3781 309.795C78.2629 309.303 111.849 316.769 147.408 324.674C202.492 336.92 264.925 350.8 320.179 340.888C383.936 329.449 426.458 288.116 450.176 214.523C467.226 161.622 485.635 133.602 506.453 128.863C530.879 123.301 555.695 149.438 581.968 177.109C610.682 207.35 640.375 238.622 672.654 232.554C701.138 227.198 727.854 193.091 754.328 128.283C782.712 58.8036 814.985 18.4943 852.994 5.04897C898.79 -11.1504 946.025 14.8379 987.699 37.7685C1022.41 56.8653 1055.19 74.9023 1081.82 65.9381C1097.02 60.8235 1109.28 47.3722 1119.32 24.8141L1120 25.1169Z" fill="#B6461A"/>
</svg>
