<svg width="27" height="58" viewBox="0 0 27 58" fill="none" xmlns="http://www.w3.org/2000/svg">
<path d="M14.2377 53.952C14.2837 55.3746 15.4853 56.4942 16.9096 56.4454C18.3313 56.397 19.448 55.2008 19.4009 53.777C19.3509 52.3475 18.1578 51.232 16.7334 51.2808C15.3066 51.3308 14.1903 52.5223 14.2377 53.952Z" fill="white"/>
<path d="M18.729 53.9795C18.6832 53.9857 18.7872 54.6588 18.0789 55.6009C17.4475 56.5166 15.581 57.6085 13.5401 56.7031C11.6251 55.7647 10.5213 53.014 11.2579 49.9422C11.7147 46.7684 12.4623 43.182 13.138 39.2525C13.8306 35.3251 14.5823 31.0652 15.2557 26.5375C15.8828 22.0057 16.6539 17.2243 16.7462 12.1749C16.8089 10.8957 16.8759 9.60321 16.9379 8.30275C16.9971 6.97153 17.0605 5.57095 16.6537 4.07644L16.5855 3.79465C16.5653 3.73097 16.575 3.73147 16.5312 3.61799L16.4938 3.50551C16.4362 3.35409 16.3904 3.21721 16.2918 3.00361C16.1221 2.6065 15.9376 2.26638 15.6987 1.88331C15.1967 1.20458 14.4652 0.239718 12.8762 0.00756902C12.0857 -0.0611229 11.3177 0.34752 10.9367 0.836219C10.5426 1.33327 10.2323 1.96387 10.0735 2.28109C9.62796 3.1801 9.3513 3.63537 9.15053 4.32864C8.22224 6.97152 8.43456 9.96321 8.74516 12.8814C9.07883 15.8273 10.4329 18.6017 12.2891 20.8615C13.1791 22.0209 14.2076 23.0651 15.2773 24.0288C15.5431 24.2775 15.8247 24.5012 16.1026 24.7286L16.8286 25.3258C17.3706 25.758 17.8201 26.1656 18.2375 26.5569C19.9949 28.1935 21.6081 30.0527 22.5618 32.1056C23.5077 34.1611 23.6997 36.4179 22.887 38.4319C22.0891 40.4505 20.3462 42.0995 18.3248 43.1765C14.2801 45.3691 8.96532 45.2693 5.25284 43.1195C3.3777 42.0577 2.09 40.2121 1.7998 38.2696C1.51694 36.3242 2.05389 34.408 2.99087 32.9416C4.86901 29.9385 8.01213 28.8458 10.643 29.3512C13.2973 29.8752 15.2268 31.7741 16.0655 33.648C16.9675 35.5438 16.9537 37.3743 16.8579 38.5787C16.7335 39.7974 16.5668 40.4641 16.5668 40.4641C16.5668 40.4641 16.6537 40.321 16.8179 40.0382C16.9951 39.7566 17.2275 39.3254 17.4623 38.7247C17.9368 37.5453 18.474 35.5637 17.8395 33.0176C17.2064 30.5562 15.0489 27.5594 11.2834 26.5818C9.45211 26.0834 7.25534 26.1859 5.31685 27.1024C3.31149 28.0222 1.7005 29.7604 0.836737 31.844C-0.0422363 33.9084 -0.286161 36.3225 0.379839 38.592C0.987497 40.8732 2.58397 42.8589 4.62393 44.1469C8.81937 46.5598 14.1912 47.0866 19.232 45.1221C21.7034 44.1106 24.0839 42.2985 25.456 39.6239C26.8658 36.9703 26.8987 33.62 25.9104 30.829C24.9545 27.9948 23.3482 25.532 21.3965 23.417C20.8938 22.8549 20.3992 22.3318 19.9371 21.8929L18.5287 20.5294C17.6558 19.6904 16.8575 18.7845 16.1089 17.8529C14.6788 15.9419 13.4465 13.9621 12.2651 11.8316C11.2505 10.0162 10.7248 7.93689 10.6765 5.86009C10.6526 4.9813 10.7784 3.60645 11.7851 3.27854C13.3766 2.75725 14.1467 5.58783 14.5195 6.6167C15.1634 8.38965 15.5103 10.2871 15.519 12.1752C15.5381 17.1012 15.0588 21.9026 14.3515 26.3995C13.6517 30.9091 12.8391 35.1407 12.0471 39.0473C11.2615 42.9549 10.5579 46.5364 10.0716 49.7746C9.96498 50.6022 9.85548 51.3487 9.83743 52.2204C9.82974 53.037 10.02 53.8321 10.3053 54.5428C10.8572 55.9741 12.027 57.0566 13.2567 57.4243C14.4864 57.8124 15.6277 57.6558 16.5275 57.3307C17.4215 56.9762 18.0603 56.4365 18.4861 55.9296C19.3326 54.8773 19.3624 54.0561 19.3799 54.1107L18.729 53.9795Z" fill="white"/>
</svg>
