<svg width="1440" height="826" viewBox="0 0 1440 826" fill="none" xmlns="http://www.w3.org/2000/svg">
<g opacity="0.3">
<path d="M736.375 498.259C813.855 478.3 885.785 422.513 950.265 332.364C1036.81 211.349 1153.27 133.09 1235.73 88.7462C1334.94 35.397 1425.75 8.84586 1471.77 6.17122L1472.15 4.88814C1425.75 7.57082 1334.34 34.2648 1234.67 87.8645C1151.97 132.332 1035.19 210.807 948.421 332.131C884.272 421.824 812.854 477.301 736.093 497.079C734.574 497.471 733.065 497.842 731.548 498.208C654.755 516.536 571.144 499.717 483.05 448.215C387.655 392.459 282.773 370.092 187.709 385.243C119.859 396.044 57.7268 425.465 3.0867 472.649L4.62559 473.199C58.8476 426.382 120.377 397.233 187.664 386.495C282.107 371.445 386.443 393.735 481.44 449.269C570.01 501.04 654.227 517.913 731.769 499.404C733.3 499.039 734.843 498.655 736.375 498.259Z" fill="white"/>
<path d="M722.339 516.495C804.381 495.358 880.578 436.406 948.914 341.183C1034.94 221.313 1151.02 147.098 1233.26 105.949C1328.52 58.2732 1419.85 34.0922 1468.12 31.2751L1468.5 29.9954C1419.88 32.8358 1327.99 57.1312 1232.28 105.027C1149.79 146.308 1033.34 220.752 947.07 340.953C879.065 435.721 803.382 494.362 722.058 515.318C720.456 515.73 718.851 516.127 717.242 516.512C640.59 534.816 560.521 520.097 479.266 472.769C383.939 417.264 279.1 395.055 184.043 410.236C116.148 421.06 54.0434 450.445 -0.622196 497.53L0.915904 498.076C55.164 451.358 116.735 422.256 183.996 411.48C278.431 396.4 382.726 418.537 477.656 473.822C559.387 521.421 640.068 536.187 717.462 517.704C719.085 517.321 720.717 516.913 722.339 516.495Z" fill="white"/>
<path d="M708.237 535.784C794.982 513.435 875.679 450.949 948.194 349.972C1109.76 125.006 1382.49 60.5386 1465.32 55.6844L1465.7 54.4046C1382.49 59.2635 1108.48 123.985 946.349 349.742C874.166 450.263 793.98 512.436 707.954 534.604C706.262 535.04 704.572 535.459 702.88 535.865C628.231 553.691 549.7 540.369 475.782 497.349C380.391 441.858 275.477 419.67 180.37 434.873C112.466 445.731 50.311 475.098 -4.38915 522.192L-2.85021 522.739C51.4253 476.018 113.032 446.902 180.323 436.118C274.81 421.019 379.172 443.137 474.171 498.402C548.557 541.692 627.715 555.06 703.099 537.058C704.806 536.652 706.53 536.225 708.237 535.784Z" fill="white"/>
<path d="M693.731 556.216C736.54 545.185 778.71 524.288 819.149 494.048C864.089 460.443 907.213 415.024 947.313 359.055C1015.45 263.95 1110.24 190.036 1229.05 139.364C1320.06 100.544 1408.83 83.4377 1461.55 80.3642L1461.94 79.0827C1408.92 82.1755 1319.69 99.3633 1228.25 138.36C1108.98 189.23 1013.84 263.404 945.469 358.823C905.48 414.641 862.505 459.92 817.732 493.396C777.616 523.395 735.823 544.119 693.442 555.039C691.736 555.478 690.028 555.902 688.314 556.31C615.434 573.71 540.902 561.894 472.765 522.139C377.396 466.505 272.521 444.219 177.462 459.389C109.583 470.223 47.4778 499.603 -7.15592 546.728L-5.61729 547.277C48.6189 500.513 110.187 471.366 177.416 460.635C271.862 445.569 376.178 467.786 471.156 523.193C539.753 563.216 614.925 575.08 688.536 557.508C690.261 557.093 691.997 556.663 693.731 556.216Z" fill="white"/>
<path d="M678.318 576.889C772.959 552.507 865.373 480.359 945.948 367.876C1107.7 142.086 1378.59 109.517 1457.75 104.9L1458.14 103.619C1422.71 105.672 1329.18 114.798 1225.73 155.003C1106.83 201.21 1012.08 272.755 944.104 367.644C863.855 479.682 771.964 551.504 678.034 575.707C676.301 576.153 674.571 576.582 672.831 577C602.3 593.838 531.804 583.357 468.966 546.693C373.618 491.054 268.763 468.758 173.703 483.922C105.849 494.736 43.7046 524.135 -10.9527 571.279L-9.41406 571.827C44.8248 525.047 106.425 495.911 173.651 485.17C268.098 470.109 372.4 492.33 467.359 547.746C530.665 584.682 601.787 595.209 673.053 578.195C674.8 577.779 676.571 577.34 678.318 576.889Z" fill="white"/>
<path d="M663.041 598.563C761.805 573.12 859.066 496.613 944.681 376.934C1052.57 226.12 1223.93 142.88 1453.99 129.576L1454.37 128.293C1399.31 131.479 1315.44 139.445 1223.24 171.763C1104.76 213.276 1010.42 282.228 942.835 376.702C857.546 495.931 760.815 572.113 662.763 597.377C660.982 597.836 659.206 598.281 657.43 598.705C589.726 614.862 523.276 605.487 465.268 571.584C369.885 515.844 265 493.49 169.943 508.64C102.034 519.472 39.9488 548.869 -14.692 596.046L-13.1533 596.595C41.0751 549.776 102.693 520.598 169.898 509.892C264.34 494.836 368.666 517.121 463.658 572.638C522.132 606.809 589.211 616.236 657.649 599.902C659.44 599.474 661.246 599.026 663.041 598.563Z" fill="white"/>
<path d="M648.032 620.164C696.914 607.569 746.329 582.128 795.015 544.484C847.192 504.138 897.29 450.666 943.927 385.557C1095.78 173.518 1337.72 160.163 1441.02 154.462C1444.59 154.267 1447.98 154.08 1451.16 153.892L1451.55 152.61C1448.36 152.791 1444.98 152.98 1441.41 153.178C1390.32 155.993 1304.84 160.703 1211.55 191.439C1098.14 228.793 1007.47 294.025 942.082 385.326C895.551 450.296 845.581 503.633 793.566 543.856C743.45 582.606 692.531 608.353 642.48 620.291C577.883 635.713 515.388 627.313 461.746 596.001C366.324 540.31 261.384 517.995 166.254 533.169C98.323 544.006 36.1918 573.405 -18.4939 620.578L-16.9544 621.127C37.3138 574.321 98.9507 545.157 166.202 534.418C260.718 519.342 365.105 541.588 460.136 597.055C514.245 628.634 577.376 637.083 642.694 621.488C644.477 621.063 646.249 620.624 648.032 620.164Z" fill="white"/>
<path d="M633.607 642.645C737.963 615.765 847.615 527.86 943 394.47C1087.17 192.819 1312.98 183.981 1421.48 179.745C1431.32 179.359 1439.82 179.027 1447.41 178.587L1447.79 177.304C1440.23 177.736 1431.75 178.072 1421.93 178.454C1312.91 182.716 1086.05 191.585 941.156 394.238C846.098 527.184 736.988 614.755 633.331 641.462C631.619 641.903 629.917 642.325 628.212 642.735C566.11 657.554 509.076 650.132 458.699 620.673C363.315 564.899 258.432 542.524 163.373 557.67C95.4347 568.498 33.3714 597.899 -21.2657 645.091L-19.7265 645.641C34.4991 598.811 96.095 569.667 163.321 558.921C257.772 543.872 362.097 566.182 457.09 621.728C507.943 651.462 565.589 658.931 628.433 643.933C630.152 643.522 631.881 643.089 633.607 642.645Z" fill="white"/>
<path d="M619.098 665.147C726 637.6 840.363 544.972 941.736 403.647C1080.49 210.203 1291.62 206.702 1405.04 204.816C1420.01 204.568 1432.93 204.355 1443.77 203.718L1444.15 202.438C1433.38 203.065 1420.49 203.279 1405.56 203.526C1350.88 204.432 1268.33 205.784 1183.2 231.241C1081.98 261.517 1000.13 319.448 939.893 403.417C838.839 544.298 725.029 636.601 618.824 663.969C617.132 664.405 615.458 664.819 613.765 665.221C555.097 679.229 501.652 672.526 454.919 645.294C359.588 589.753 254.736 567.525 159.678 582.702C91.8219 593.509 29.691 622.91 -24.9659 670.002L-23.4267 670.549C30.8185 623.818 92.3798 594.705 159.632 583.947C254.069 568.871 358.37 591.031 453.31 646.346C500.518 673.85 554.576 680.601 613.987 666.418C615.684 666.011 617.393 665.587 619.098 665.147Z" fill="white"/>
</g>
</svg>
