<svg width="20" height="20" viewBox="0 0 20 20" fill="none" xmlns="http://www.w3.org/2000/svg">
<path d="M10.0023 1.6665C5.40228 1.6665 1.66895 5.39984 1.66895 9.99984C1.66895 14.5998 5.40228 18.3332 10.0023 18.3332C14.6023 18.3332 18.3356 14.5998 18.3356 9.99984C18.3356 5.39984 14.6023 1.6665 10.0023 1.6665ZM12.8523 13.8165C12.7273 13.9915 12.5356 14.0749 12.3439 14.0749C12.2189 14.0749 12.0939 14.0332 11.9773 13.9582C10.6939 13.0415 9.05228 12.8415 7.58562 13.4165C7.26895 13.5415 6.90228 13.3832 6.77728 13.0665C6.65228 12.7415 6.81061 12.3832 7.12728 12.2582C8.99395 11.5165 11.0773 11.7748 12.7023 12.9415C12.994 13.1498 13.0523 13.5415 12.8523 13.8165ZM13.7689 11.4915C13.6439 11.6665 13.4523 11.7498 13.2606 11.7498C13.1356 11.7498 13.0106 11.7082 12.8939 11.6332C11.1273 10.3665 8.86895 10.0915 6.84395 10.8915C6.52728 11.0165 6.16062 10.8582 6.03562 10.5415C5.91062 10.2165 6.06895 9.85816 6.38562 9.73316C8.80228 8.77483 11.5106 9.10817 13.6189 10.6248C13.9023 10.8248 13.9689 11.2165 13.7689 11.4915ZM15.0773 9.25816C14.9523 9.43316 14.7606 9.51652 14.5689 9.51652C14.4439 9.51652 14.3189 9.47484 14.2023 9.39984C11.7189 7.6165 8.53561 7.22484 5.70228 8.35817C5.37728 8.48317 5.01894 8.32483 4.89394 8.00816C4.76894 7.69149 4.92727 7.32485 5.24394 7.19985C8.47727 5.91652 12.1023 6.35818 14.9356 8.39151C15.2189 8.58318 15.2856 8.97483 15.0773 9.25816Z" fill="black"/>
</svg>
