<svg width="42" height="42" viewBox="0 0 42 42" fill="none" xmlns="http://www.w3.org/2000/svg">
<g clip-path="url(#clip0_195_5268)">
<path d="M0 38.4996V3.5C0 1.568 1.56797 0 3.50037 0H38.4996C40.432 0 42 1.568 42 3.5V38.4996C42 40.432 40.432 42 38.4996 42H3.50037C1.56797 42 0 40.432 0 38.4996Z" fill="#406AFF"/>
<path d="M16.349 30.555L10.502 10.5H14.7649C15.3489 10.5 15.8617 10.8867 16.0253 11.4489L20.5153 26.9679C20.5433 27.062 20.6294 27.125 20.7274 27.125H21.273C21.3705 27.125 21.4567 27.062 21.4847 26.9679L25.9747 11.4489C26.1379 10.8867 26.6511 10.5 27.2351 10.5H31.498L25.6501 30.555C25.4869 31.1146 24.9729 31.5 24.3901 31.5H17.6099C17.0263 31.5 16.5126 31.1146 16.349 30.555Z" fill="#FBFBFB"/>
</g>
<defs>
<clipPath id="clip0_195_5268">
<rect width="42" height="42" fill="white"/>
</clipPath>
</defs>
</svg>
